<?xml version="1.0" standalone="no"?>
<!DOCTYPE svg PUBLIC "-//W3C//DTD SVG 20010904//EN"
 "http://www.w3.org/TR/2001/REC-SVG-20010904/DTD/svg10.dtd">
<svg version="1.0" xmlns="http://www.w3.org/2000/svg"
 width="1024.000000pt" height="682.000000pt" viewBox="0 0 1024.000000 682.000000"
 preserveAspectRatio="xMidYMid meet">

<g transform="translate(0.000000,682.000000) scale(0.100000,-0.100000)"
fill="#000000" stroke="none">
<path d="M248 6800 c-7 -11 -21 -20 -30 -20 -10 0 -18 -6 -18 -14 0 -17 -83
-106 -99 -106 -6 0 -31 -10 -56 -22 l-44 -23 -1 -3307 0 -3308 5120 0 5120 0
0 1847 c0 1015 -2 1844 -4 1842 -3 -2 -6 -37 -7 -77 -2 -59 -5 -72 -16 -67 -8
3 -60 5 -116 5 -78 0 -98 3 -89 12 6 6 31 15 54 19 l43 6 -40 2 c-22 2 -49 6
-60 11 -18 8 -17 9 6 9 15 1 42 4 60 8 25 6 5 9 -76 13 -91 4 -110 8 -113 21
-5 26 26 49 66 49 28 0 33 3 24 12 -18 18 -15 28 11 30 12 0 2 4 -23 7 -65 9
-51 25 27 32 l68 5 -70 4 c-38 2 -76 3 -82 3 -7 -1 -13 5 -13 12 0 7 6 13 13
12 6 0 35 1 62 3 43 2 46 3 20 9 l-30 7 30 5 c17 2 62 2 100 -2 l70 -6 -65 -2
c-79 -3 -69 -8 28 -14 57 -3 72 -2 68 8 -3 8 2 16 10 19 8 3 14 12 14 21 0 13
-21 15 -137 16 -101 1 -127 4 -98 10 22 4 84 8 138 8 l97 1 0 36 0 36 -165 -7
c-121 -6 -165 -5 -165 4 0 6 1 12 3 13 1 0 74 4 162 7 l160 6 3 68 3 67 -108
2 -108 1 105 7 c58 4 113 3 123 -2 16 -8 17 59 17 1337 l0 1345 -1057 0 -1056
0 20 -22 c11 -13 18 -29 15 -37 -3 -8 0 -11 7 -7 6 4 11 2 11 -3 0 -15 -6 -14
-35 5 -14 9 -22 21 -18 27 3 5 1 7 -4 4 -6 -4 -18 2 -28 13 -16 18 -31 20
-157 20 -76 0 -138 -3 -138 -7 0 -5 16 -21 35 -36 l36 -28 -32 -40 c-33 -42
-92 -76 -223 -128 -71 -28 -80 -30 -96 -16 -22 19 -30 19 -30 -2 0 -15 -2 -15
-18 3 -14 15 -18 36 -17 109 0 84 -2 92 -26 118 l-26 27 -176 0 -177 0 -2
-212 c-2 -166 -6 -212 -16 -216 -11 -3 -13 19 -11 116 2 67 1 123 -1 126 -7 6
-98 -16 -179 -43 -98 -32 -93 -38 -90 99 1 66 -1 123 -4 127 -4 3 -24 -1 -44
-10 -21 -9 -91 -32 -156 -52 -112 -35 -120 -36 -150 -21 -18 8 -46 31 -64 50
l-31 36 -150 0 c-111 0 -152 -3 -155 -12 -3 -10 -9 -10 -25 -1 -30 18 -2626
19 -2620 1 2 -6 17 -15 32 -19 32 -9 56 -27 56 -42 0 -6 -10 -1 -23 11 -13 12
-34 22 -48 22 -14 0 -42 9 -64 20 -39 20 -59 20 -1542 20 -1492 0 -1503 0
-1515 -20z m7817 -61 c10 -16 -11 -10 -31 9 -10 9 -28 28 -39 42 -16 19 -11
17 22 -9 24 -18 45 -37 48 -42z m-2001 0 c20 -12 36 -24 36 -27 -1 -23 -96
-62 -150 -62 -14 0 -47 -12 -75 -26 -27 -13 -189 -70 -360 -125 -170 -56 -336
-110 -368 -121 -32 -11 -61 -17 -65 -13 -5 5 -4 76 2 82 4 5 566 195 641 217
44 13 121 40 170 60 106 41 122 43 169 15z m1866 -114 c0 -79 -2 -86 -27 -110
-30 -28 -71 -30 -84 -5 -4 8 -11 28 -14 44 -5 26 -7 27 -19 11 -12 -17 -14
-17 -41 1 l-28 18 29 9 c16 5 35 9 43 9 8 1 39 27 70 58 31 31 59 55 64 53 4
-2 7 -42 7 -88z m-5208 64 c21 -5 38 -13 38 -17 -1 -11 -86 -62 -104 -62 -9 0
-19 -7 -23 -16 -6 -15 -8 -15 -20 2 -13 18 -17 61 -8 87 7 17 65 20 117 6z
m3458 -35 c0 -16 -16 -19 -25 -4 -8 13 4 32 16 25 5 -4 9 -13 9 -21z m-2542
-8 c4 5 25 10 46 12 l39 2 -24 -18 c-19 -15 -81 -42 -95 -42 -2 0 -4 14 -4 31
0 28 2 30 16 18 9 -7 18 -9 22 -3z m4442 -75 c3 -2 -7 -1 -21 2 -18 5 -31 2
-40 -9 -12 -14 -14 -14 -26 2 -7 10 -13 36 -13 58 l0 40 47 -44 c26 -25 50
-47 53 -49z m-1170 -11 c0 -5 -5 -10 -11 -10 -5 0 -7 5 -4 10 3 6 8 10 11 10
2 0 4 -4 4 -10z m773 -77 c-1 -49 -3 -92 -3 -96 0 -5 -4 -5 -10 -2 -5 3 -10
22 -10 41 0 33 -1 34 -39 34 -68 0 -92 62 -29 75 16 4 41 13 56 21 15 8 29 14
32 14 3 0 4 -39 3 -87z m44 55 c6 -7 11 -46 12 -86 2 -66 0 -73 -16 -70 -15 3
-18 15 -19 86 -2 80 3 95 23 70z m114 -59 l40 3 -3 -64 -3 -63 -48 -6 c-57 -6
-67 5 -67 75 0 61 8 80 27 64 8 -7 33 -11 54 -9z m-5157 -98 c3 -4 -6 -6 -19
-3 -14 2 -25 11 -25 19 0 10 4 11 19 3 11 -5 22 -14 25 -19z m4773 -78 c-2
-16 -4 -3 -4 27 0 30 2 43 4 28 2 -16 2 -40 0 -55z m-4577 46 c0 -4 20 -11 45
-15 37 -5 43 -9 34 -20 -6 -8 -18 -14 -25 -14 -7 0 -38 -11 -69 -25 -31 -14
-61 -23 -67 -19 -6 4 -8 3 -5 -3 6 -9 -77 -53 -101 -53 -15 0 -16 34 -2 60 6
11 17 16 28 13 11 -2 26 3 35 12 10 10 25 13 40 9 14 -3 28 -1 31 5 4 6 0 11
-8 11 -24 0 -19 36 6 47 24 11 58 6 58 -8z m2000 -18 l0 -38 -87 -30 c-237
-81 -587 -192 -593 -188 -4 3 -5 19 -1 37 7 36 -21 23 346 150 83 29 184 64
225 79 105 37 110 37 110 -10z m671 26 c30 -15 36 -42 9 -44 -11 -1 -43 6 -71
16 l-51 19 28 10 c40 14 58 14 85 -1z m-2896 -29 c14 -6 25 -15 25 -19 0 -16
-69 -81 -80 -74 -5 3 -10 0 -11 -7 0 -7 -4 -3 -9 9 -10 26 -1 95 11 87 5 -3 9
0 9 5 0 14 23 14 55 -1z m-1458 -54 c5 -14 -58 -25 -72 -13 -14 14 14 30 44
27 14 -2 26 -8 28 -14z m4096 -10 c57 -19 61 -34 9 -34 -39 0 -62 14 -62 37 0
16 -3 16 53 -3z m1644 -25 c43 -23 84 -46 91 -51 14 -12 17 -42 2 -33 -6 3
-13 -1 -16 -10 -5 -13 -9 -14 -15 -4 -6 10 -12 9 -28 -5 -14 -13 -21 -15 -21
-6 0 9 -3 10 -13 1 -8 -6 -17 -8 -20 -4 -4 3 -13 0 -22 -7 -8 -7 -15 -10 -15
-6 0 4 -10 0 -23 -9 -13 -8 -27 -12 -30 -8 -4 3 -7 2 -7 -4 0 -6 -11 -8 -25
-5 -21 4 -25 0 -26 -19 l-1 -24 -7 25 c-5 17 -9 21 -15 12 -4 -6 -20 -12 -36
-12 -16 0 -32 -4 -35 -10 -3 -5 -14 -10 -23 -10 -9 0 -30 -7 -47 -16 -16 -8
-63 -17 -104 -19 -67 -4 -76 -7 -88 -28 -8 -16 -21 -24 -40 -25 -44 -2 -157
-28 -194 -45 -19 -9 -54 -21 -78 -27 -24 -6 -50 -18 -58 -26 -8 -8 -25 -14
-39 -14 -13 0 -50 -9 -81 -19 -136 -45 -352 -91 -427 -91 -66 0 -230 -31 -242
-46 -6 -8 -23 -14 -37 -14 -14 0 -28 -4 -31 -9 -7 -11 -73 -22 -92 -14 -10 4
-14 24 -14 79 0 62 3 74 16 74 18 0 282 68 484 125 156 44 394 107 525 140
122 30 146 37 260 70 108 31 170 48 293 80 51 14 105 31 120 39 43 24 77 19
159 -25z m1912 -93 c-2 -2 -16 -7 -30 -11 -24 -6 -27 -3 -32 27 -7 49 2 54 36
19 17 -17 29 -32 26 -35z m-3952 -22 c-3 -3 -12 -4 -19 -1 -8 3 -5 6 6 6 11 1
17 -2 13 -5z m4023 -69 c0 -49 -11 -56 -38 -24 -9 12 -25 29 -34 37 -22 20 -7
32 40 32 31 0 32 -1 32 -45z m69 -25 c38 -32 35 -46 -9 -52 -35 -5 -50 12 -50
56 0 33 17 32 59 -4z m-5412 -16 c-3 -3 -12 -4 -19 -1 -8 3 -5 6 6 6 11 1 17
-2 13 -5z m283 -45 c0 -5 -9 -9 -20 -9 -19 0 -26 11 -14 23 8 8 34 -3 34 -14z
m413 4 c-7 -2 -19 -2 -25 0 -7 3 -2 5 12 5 14 0 19 -2 13 -5z m-555 -27 c22
-8 44 -12 49 -8 4 4 1 -1 -7 -9 -16 -18 -106 -49 -139 -49 -33 0 -28 46 7 64
34 19 40 19 90 2z m607 -6 l30 -8 -30 0 c-16 0 -43 4 -60 8 l-30 8 30 0 c17 0
44 -4 60 -8z m4549 -70 c-1 -3 -17 -8 -37 -11 -36 -6 -37 -5 -45 35 -5 23 -7
45 -5 49 5 8 89 -63 87 -73z m211 64 c17 -13 18 -16 5 -25 -18 -11 -67 -4 -88
13 -13 11 -11 14 9 19 38 11 53 9 74 -7z m-4977 -35 c12 0 10 -3 -6 -10 -25
-10 -42 -5 -42 13 0 5 7 7 16 4 9 -3 23 -6 32 -7z m-638 -44 c0 -30 -15 -37
-240 -110 -346 -111 -350 -112 -336 -67 8 24 127 60 201 61 76 1 92 7 109 38
11 21 37 34 132 68 66 23 122 40 127 38 4 -2 7 -15 7 -28z m5260 -4 c0 -6 -4
-13 -10 -16 -19 -11 -11 -71 13 -98 27 -32 53 -35 62 -7 4 13 21 23 48 30 23
6 48 13 55 15 24 9 27 -28 3 -44 -39 -25 -255 -111 -281 -111 -6 0 -10 42 -10
109 l0 109 38 10 c49 13 82 14 82 3z m-2070 -21 c13 -8 13 -10 0 -14 -8 -3
-28 -11 -45 -18 -34 -13 -273 -18 -248 -5 24 14 184 46 233 46 25 0 52 -3 60
-9z m1928 -110 l-3 -104 -49 -12 c-28 -7 -64 -14 -80 -16 -31 -3 -31 -3 -28
41 4 41 3 43 -18 38 -19 -5 -21 -3 -15 16 3 12 11 42 17 67 5 25 13 48 17 53
10 11 145 35 154 27 4 -4 6 -53 5 -110z m656 58 c20 -23 36 -45 36 -50 0 -4
-13 -8 -29 -8 -20 0 -42 12 -70 38 -46 43 -48 49 -23 55 39 10 52 5 86 -35z
m-247 -12 c-6 -18 -57 -20 -57 -2 0 8 6 16 13 19 19 6 48 -4 44 -17z m108 14
c3 -5 2 -10 -4 -10 -5 0 -13 5 -16 10 -3 6 -2 10 4 10 5 0 13 -4 16 -10z
m-4225 -61 c0 -15 -5 -20 -22 -17 -34 5 -37 38 -4 38 20 0 26 -5 26 -21z
m4195 -16 c22 -21 39 -45 39 -53 -1 -8 -2 -22 -3 -31 -1 -11 -14 -18 -37 -22
-30 -5 -43 -1 -73 21 -55 41 -61 49 -61 76 0 20 7 27 33 35 52 15 61 13 102
-26z m-155 -18 c0 -13 -8 -29 -18 -34 -20 -11 -26 -49 -10 -68 6 -7 9 -13 7
-14 -38 -8 -276 -35 -281 -32 -5 2 -8 17 -8 32 0 25 5 30 36 35 19 4 86 29
147 56 62 27 115 50 120 50 4 0 7 -11 7 -25z m400 -4 c12 -24 13 -41 2 -41
-12 0 -52 39 -52 50 0 18 39 10 50 -9z m-1425 -11 c-28 -12 -105 -12 -105 0 0
6 27 10 63 9 44 0 56 -3 42 -9z m-3323 -38 c2 -5 35 -5 73 -2 68 7 155 -6 155
-22 0 -4 7 -8 15 -8 8 0 15 -4 15 -9 0 -6 -21 -13 -47 -16 -27 -4 -53 -13 -59
-21 -6 -8 -33 -16 -60 -18 -55 -5 -133 -23 -149 -35 -17 -13 -88 -32 -130 -35
-22 -2 -47 -6 -55 -9 -14 -5 -36 -9 -125 -23 -22 -4 -46 -13 -52 -22 -20 -25
-23 -11 -11 65 l10 72 52 15 c157 45 227 58 243 45 8 -7 24 -7 48 0 20 5 43 7
51 4 10 -4 12 0 8 11 -6 16 11 24 18 8z m4594 -20 c-9 -9 -37 8 -31 18 5 8 11
7 21 -1 8 -6 12 -14 10 -17z m-3441 -9 c-11 -3 -24 -9 -29 -14 -6 -5 -21 -9
-35 -8 -23 0 -22 1 9 13 19 8 44 14 55 14 l20 0 -20 -5z m1535 -28 c0 -8 -4
-15 -10 -15 -5 0 -10 7 -10 15 0 8 5 15 10 15 6 0 10 -7 10 -15z m1328 -17
c-3 -32 -4 -33 -77 -45 -41 -7 -77 -10 -81 -8 -4 2 -6 14 -5 26 1 19 12 25 71
40 97 24 96 24 92 -13z m655 -4 c26 -20 47 -40 47 -45 0 -7 -16 -12 -91 -25
-31 -5 -39 -2 -53 17 -20 29 -20 53 0 73 24 24 46 19 97 -20z m177 27 c0 -14
-18 -23 -30 -16 -6 4 -8 11 -5 16 8 12 35 12 35 0z m-3840 -9 c0 -8 -37 -19
-170 -51 -139 -32 -170 -35 -170 -17 0 9 6 18 13 20 124 33 164 41 232 46 44
4 83 7 88 8 4 1 7 -2 7 -6z m3530 -22 c8 -16 8 -18 -4 -14 -17 6 -30 34 -16
34 5 0 14 -9 20 -20z m346 -5 c18 -14 18 -14 -8 -15 -27 0 -43 12 -31 24 9 9
17 8 39 -9z m-536 -49 c0 -57 -9 -66 -67 -66 -20 0 -23 5 -23 36 0 34 -1 35
-32 32 -19 -2 -33 2 -35 10 -3 8 6 12 26 12 17 0 31 4 31 8 0 5 16 9 36 10 20
1 39 4 42 7 15 15 22 0 22 -49z m-4810 20 c0 -29 -23 -83 -50 -116 -16 -21
-20 -22 -20 -7 0 14 -4 16 -17 8 -17 -8 -213 -22 -213 -14 0 2 9 20 19 41 17
33 26 39 87 55 38 11 94 27 124 37 71 24 70 24 70 -4z m937 -58 c-2 -18 -4 -6
-4 27 0 33 2 48 4 33 2 -15 2 -42 0 -60z m3995 25 c15 -18 11 -21 -50 -29
l-52 -7 0 40 c0 22 3 43 6 46 8 7 79 -30 96 -50z m-6745 -39 c-30 -16 -44 -14
-32 5 3 6 18 11 33 11 l27 -1 -28 -15z m-60 -9 c3 -11 -83 -45 -114 -45 -10 0
-23 -4 -28 -9 -15 -15 -99 -31 -108 -22 -12 12 1 18 107 57 90 32 136 39 143
19z m1512 -46 c-51 -61 -47 -59 -89 -50 -30 6 -35 11 -35 36 0 28 3 31 60 43
33 7 67 17 75 21 33 18 28 -3 -11 -50z m-279 -49 c0 -11 -4 -20 -10 -20 -5 0
-10 9 -10 20 0 11 5 20 10 20 6 0 10 -9 10 -20z m330 11 c0 -5 11 -12 24 -15
13 -3 27 -13 30 -22 5 -12 2 -15 -11 -9 -25 10 -43 13 -78 15 -29 1 -29 2 -7
12 12 6 22 15 22 20 0 4 5 8 10 8 6 0 10 -4 10 -9z m-360 -21 c0 -23 -21 -26
-53 -8 l-22 12 25 7 c42 12 50 10 50 -11z m1067 -6 c-3 -3 -12 -4 -19 -1 -8 3
-5 6 6 6 11 1 17 -2 13 -5z m5279 -19 c-8 -8 -22 -15 -30 -15 -9 0 -16 7 -16
15 0 10 10 15 31 15 27 0 29 -2 15 -15z m-2598 -32 l-3 -38 -90 -12 c-284 -37
-598 -63 -582 -47 3 3 36 10 74 15 117 16 218 34 228 41 6 3 55 9 110 12 181
11 230 23 173 42 l-23 8 25 7 c14 4 40 7 58 8 32 1 33 0 30 -36z m-2837 11
c-30 -9 -49 -10 -62 -3 -11 5 -19 11 -19 12 0 2 28 3 63 4 l62 1 -44 -14z
m-166 -13 c6 -3 16 -6 23 -7 30 -5 23 -14 -10 -14 -21 0 -45 8 -59 20 l-24 20
30 -6 c17 -4 35 -9 40 -13z m-926 -7 c2 -2 -2 -5 -10 -8 -8 -2 -35 -11 -61
-19 -41 -12 -48 -12 -53 0 -8 24 -6 31 13 36 17 5 103 -2 111 -9z m-1549 -3
c0 -10 -128 -56 -136 -48 -8 7 20 25 62 40 47 18 74 20 74 8z m1403 -20 c4
-16 -7 -22 -72 -40 -103 -30 -199 -50 -238 -51 -18 0 -33 -5 -33 -11 0 -7 -10
-9 -25 -7 -14 3 -25 2 -25 -2 0 -4 -11 -11 -24 -14 -13 -3 -32 -9 -43 -13 -15
-6 -16 -5 -5 9 10 13 10 17 0 22 -7 3 1 4 19 1 17 -2 33 -1 35 3 4 10 149 56
243 78 39 9 88 22 110 29 53 18 52 18 58 -4z m6357 15 c0 -8 -51 -13 -56 -5
-3 5 9 9 25 9 17 0 31 -2 31 -4z m-146 -16 c-9 -9 -124 -29 -168 -30 -33 0 -6
15 47 26 68 15 134 17 121 4z m-204 -31 c0 -5 -18 -9 -40 -9 -40 0 -56 15 -22
22 24 5 62 -3 62 -13z m-5580 -14 c0 -10 -10 -15 -29 -15 -16 0 -44 -2 -62 -5
-24 -4 -17 0 21 14 68 24 70 24 70 6z m-1930 -15 c0 -5 -5 -10 -11 -10 -5 0
-7 5 -4 10 3 6 8 10 11 10 2 0 4 -4 4 -10z m7249 -4 c23 -13 22 -13 -20 -19
-41 -5 -58 2 -59 26 0 12 53 7 79 -7z m806 -6 c3 -5 -3 -10 -14 -10 -12 0 -21
5 -21 10 0 6 6 10 14 10 8 0 18 -4 21 -10z m-225 -25 c0 -23 -4 -25 -45 -25
-37 0 -45 3 -45 18 0 27 9 32 52 32 34 0 38 -3 38 -25z m-6049 8 c-11 -4 -8
-10 10 -24 13 -10 18 -19 12 -19 -19 0 -16 -17 9 -42 l21 -21 -94 6 c-52 4
-112 12 -134 18 l-40 12 55 16 c30 9 73 26 95 38 22 12 49 22 60 22 13 0 15
-3 6 -6z m5936 -39 c-3 -3 -36 -8 -74 -11 -56 -4 -71 -3 -82 11 -8 9 -12 19
-9 22 3 2 41 8 84 12 72 6 79 5 82 -11 2 -10 2 -21 -1 -23z m-8007 16 c0 -5
-4 -10 -10 -10 -5 0 -10 5 -10 10 0 6 5 10 10 10 6 0 10 -4 10 -10z m7070 0
c0 -5 -4 -10 -10 -10 -5 0 -10 5 -10 10 0 6 5 10 10 10 6 0 10 -4 10 -10z
m-2430 -37 c-36 -7 -79 -21 -96 -29 -17 -9 -47 -16 -65 -17 -19 -1 -37 -6 -40
-11 -4 -4 -35 -9 -70 -10 -35 -2 -84 -10 -109 -18 -25 -9 -74 -17 -110 -19
-36 -2 -68 -8 -71 -12 -8 -11 -239 -17 -239 -7 0 5 21 12 48 15 26 4 106 17
177 30 72 13 182 31 245 40 63 9 156 22 205 31 125 20 137 21 165 21 14 1 -4
-6 -40 -14z m3015 7 c-37 -7 -35 -7 25 -10 61 -2 63 -3 32 -13 -22 -7 -54 -7
-97 -1 -52 8 -65 7 -65 -3 0 -7 -4 -13 -9 -13 -5 0 -7 9 -4 19 5 21 34 27 118
28 l40 0 -40 -7z m-6530 -39 c-3 -6 -11 -8 -17 -5 -6 4 -5 9 3 15 16 10 23 4
14 -10z m3745 10 c0 -8 -50 -20 -174 -41 -71 -12 -96 -13 -96 -2 0 9 104 41
150 45 73 7 120 7 120 -2z m3890 -23 c0 -10 -3 -17 -7 -17 -5 1 -10 0 -13 -1
-16 -8 -87 -6 -97 2 -19 15 -16 28 7 28 11 0 20 -5 20 -11 0 -6 7 -4 15 5 21
21 75 16 75 -6z m-1265 2 c-28 -12 -67 -12 -60 0 3 6 23 10 43 9 30 0 33 -2
17 -9z m-5957 -27 c-2 -9 -14 -20 -28 -24 l-25 -7 25 -2 c23 -1 23 -2 5 -10
-17 -7 -17 -9 -2 -9 11 -1 17 -9 17 -26 0 -24 -2 -25 -62 -24 -35 0 -92 6
-128 13 l-65 13 45 12 c25 7 52 19 61 27 18 16 115 52 142 53 12 1 17 -5 15
-16z m5777 8 c-24 -10 -118 -21 -111 -13 7 7 74 20 106 20 22 1 23 0 5 -7z
m-4667 -16 c7 -6 15 -203 10 -217 -4 -10 -18 -13 -47 -10 l-41 4 0 120 0 120
38 -7 c20 -4 39 -8 40 -10z m399 9 c-3 -3 -12 -4 -19 -1 -8 3 -5 6 6 6 11 1
17 -2 13 -5z m732 -779 c1 -357 5 -610 13 -677 l11 -108 33 0 c35 0 44 -13 44
-66 0 -31 2 -34 31 -34 l30 0 -3 -52 c-3 -49 -5 -53 -28 -53 -21 0 -26 -6 -34
-45 -6 -25 -16 -51 -23 -58 -7 -7 -13 -18 -13 -23 0 -6 -9 -7 -20 -4 -15 5
-20 2 -20 -13 0 -11 -4 -22 -9 -24 -6 -2 -11 -381 -12 -956 -2 -572 -6 -949
-12 -943 -5 5 -10 645 -11 1557 -3 1610 2 2381 15 2179 3 -60 7 -366 8 -680z
m-614 761 c33 -8 84 -17 113 -21 55 -7 68 -21 28 -31 -30 -7 -57 -2 -74 14 -7
6 -32 12 -55 12 -31 0 -38 3 -27 10 11 7 6 10 -20 11 -19 0 -44 4 -55 9 -18 8
-18 9 5 9 14 0 52 -6 85 -13z m3969 5 c8 -12 -18 -21 -57 -21 -30 1 -31 1 -13
15 22 17 62 20 70 6z m1212 2 c-10 -11 -36 -12 -36 -2 0 5 10 9 22 9 12 0 18
-3 14 -7z m202 -5 c7 -7 12 -29 12 -50 0 -31 -4 -38 -19 -38 -20 0 -33 46 -23
82 5 21 13 23 30 6z m280 -10 c3 -14 -3 -18 -27 -18 -29 0 -41 17 -24 34 13
13 48 1 51 -16z m-7923 2 c3 -5 2 -10 -4 -10 -5 0 -13 5 -16 10 -3 6 -2 10 4
10 5 0 13 -4 16 -10z m1833 4 c21 -6 22 -11 22 -121 0 -114 0 -115 -22 -111
-23 4 -23 3 -20 -94 4 -95 3 -98 -18 -98 -21 0 -22 3 -19 98 1 54 0 102 -2
107 -5 9 -5 82 -1 188 2 39 11 44 60 31z m5682 -3 c0 -5 -6 -12 -12 -14 -7 -3
-3 -6 10 -6 15 -1 22 -7 22 -21 0 -11 5 -20 10 -20 24 0 7 -19 -26 -30 -46
-15 -58 -4 -43 41 6 19 12 40 15 47 4 14 24 17 24 3z m340 -8 c0 -15 -44 -28
-59 -18 -25 15 -11 35 24 32 20 -1 35 -7 35 -14z m-7915 -3 c3 -5 1 -10 -4
-10 -6 0 -11 5 -11 10 0 6 2 10 4 10 3 0 8 -4 11 -10z m-25 -16 c0 -2 -9 -4
-21 -4 -11 0 -18 4 -14 10 5 8 35 3 35 -6z m-53 0 c-3 -3 -12 -4 -19 -1 -8 3
-5 6 6 6 11 1 17 -2 13 -5z m7583 -40 c0 -49 -25 -44 -26 5 -2 30 1 38 12 34
8 -3 14 -19 14 -39z m-179 11 c3 -13 12 -19 25 -17 18 2 18 2 0 -12 -18 -14
-14 -42 5 -31 5 4 9 2 9 -3 0 -5 -14 -12 -31 -14 -23 -4 -43 2 -71 21 -37 24
-38 26 -17 33 13 5 29 17 36 28 17 24 36 22 44 -5z m443 -6 c-10 -16 -24 -9
-24 12 0 18 2 19 15 9 8 -7 12 -16 9 -21z m244 16 c-10 -8 -78 -12 -78 -5 0 5
15 10 33 12 29 3 53 0 45 -7z m-7718 -25 c-19 -13 -30 -13 -30 0 0 6 10 10 23
10 18 0 19 -2 7 -10z m-377 -20 c6 -22 -12 -36 -53 -41 -16 -3 -24 0 -22 9 1
6 3 18 5 25 5 29 63 35 70 7z m2130 -10 c-7 -28 -13 -25 -13 6 0 14 4 23 9 20
5 -3 7 -15 4 -26z m1010 19 c60 -12 77 -29 30 -29 -16 0 -52 -3 -80 -6 -52 -7
-53 -6 -53 20 0 30 14 33 103 15z m-973 -21 c0 -12 -3 -18 -7 -14 -11 10 -12
36 -2 36 5 0 9 -10 9 -22z m-1963 -15 c-3 -3 -11 -2 -17 2 -9 6 -9 10 1 16 14
8 27 -7 16 -18z m7588 7 c-3 -5 -13 -10 -21 -10 -8 0 -14 5 -14 10 0 6 9 10
21 10 11 0 17 -4 14 -10z m-602 -17 c15 -2 27 -9 27 -13 0 -5 -12 -9 -27 -9
-27 0 -154 -13 -283 -28 -56 -7 -62 -10 -45 -20 19 -11 19 -12 -5 -17 -14 -3
-59 -8 -100 -11 -69 -6 -73 -5 -55 9 11 8 34 16 50 16 54 1 77 11 72 32 -3 11
1 22 9 25 37 14 299 26 357 16z m422 -13 c-4 -6 8 -11 27 -11 33 -2 33 -2 4
-6 -17 -3 -25 -8 -18 -12 6 -4 -4 -7 -22 -7 -28 0 -35 4 -39 23 -4 20 0 23 25
23 17 0 27 -4 23 -10z m345 -9 c14 -27 13 -31 -10 -31 -11 0 -20 5 -20 10 0 6
-5 10 -11 10 -5 0 -7 -4 -4 -10 7 -11 -20 -18 -97 -24 l-58 -5 0 29 c0 23 5
30 20 30 13 0 20 -7 20 -20 0 -25 15 -26 32 -1 9 13 29 21 58 24 25 2 48 4 52
5 4 1 12 -7 18 -17z m-1605 -7 c-36 -12 -21 -13 143 -8 174 6 184 5 180 -12
-2 -12 -18 -21 -53 -29 -47 -11 -48 -13 -26 -22 l25 -10 -25 -6 c-13 -3 -59
-9 -101 -12 -70 -7 -78 -6 -78 10 0 12 -5 15 -16 11 -9 -3 -23 -6 -31 -6 -13
0 -13 -3 -3 -15 10 -13 9 -15 -11 -15 -13 0 -34 -3 -46 -6 -21 -6 -23 -3 -23
37 0 67 9 87 39 92 54 8 65 4 26 -9z m-6180 -19 c40 -13 40 -13 -25 -8 -36 3
-74 10 -85 14 -35 14 67 9 110 -6z m2310 4 c10 -15 -1 -23 -20 -15 -9 3 -13
10 -10 16 8 13 22 13 30 -1z m-1287 -36 c3 -29 1 -31 -38 -38 -23 -4 -44 -4
-47 -1 -3 3 -2 21 1 41 7 35 9 36 44 33 33 -3 37 -6 40 -35z m101 21 c10 -9
-18 -25 -52 -31 -32 -5 -37 -3 -37 14 0 11 3 23 7 26 6 7 73 -1 82 -9z m828
-51 c-2 -16 -4 -5 -4 22 0 28 2 40 4 28 2 -13 2 -35 0 -50z m43 41 c0 -8 -4
-14 -10 -14 -5 0 -10 9 -10 21 0 11 5 17 10 14 6 -3 10 -13 10 -21z m4990 17
c0 -8 -92 -21 -148 -21 -40 0 -13 18 33 23 77 7 115 7 115 -2z m-5715 -17 c14
-9 22 -20 19 -25 -9 -15 -22 -10 -29 10 -3 11 -14 22 -23 24 -9 3 -11 5 -4 6
7 0 24 -6 37 -15z m1075 -34 c0 -37 -24 -40 -52 -8 -20 23 -20 23 4 29 42 12
48 10 48 -21z m-1130 -5 c9 -10 9 -15 1 -15 -6 0 -11 -4 -11 -10 0 -5 11 -10
25 -10 17 0 25 -6 25 -17 0 -9 7 -24 16 -34 14 -15 13 -18 -15 -30 -37 -17
-48 -47 -17 -51 11 -2 21 -10 21 -19 0 -9 6 -23 13 -31 10 -13 8 -18 -12 -32
-14 -9 -36 -16 -50 -16 -13 0 -26 -3 -29 -7 -2 -5 -2 -3 -1 4 2 6 -4 14 -12
17 -8 3 -14 18 -14 33 -1 25 -2 24 -16 -12 -8 -22 -13 -64 -12 -95 2 -40 0
-54 -9 -53 -7 2 -13 -1 -13 -6 0 -5 6 -12 13 -15 9 -5 9 -7 0 -12 -10 -4 -9
-9 2 -21 18 -18 20 -70 3 -76 -10 -3 -10 -12 0 -41 10 -26 12 -53 6 -84 -4
-26 -6 -51 -4 -57 8 -24 6 -331 -2 -342 -6 -7 -6 -19 0 -30 5 -10 10 -47 9
-83 0 -36 0 -81 1 -100 1 -19 1 -145 1 -280 1 -271 3 -346 14 -356 14 -14 21
7 22 64 3 87 3 90 18 71 7 -9 21 -18 31 -20 30 -6 43 -35 28 -60 -11 -18 -11
-24 2 -38 9 -10 16 -25 16 -34 0 -9 4 -18 9 -21 5 -4 8 -14 6 -24 -2 -9 -4
-21 -4 -25 -1 -5 -6 -5 -12 -1 -17 10 0 -59 18 -73 14 -11 11 -16 -21 -44 -42
-38 -43 -45 -13 -77 l22 -24 -24 -19 c-13 -10 -29 -19 -37 -19 -15 0 -19 -28
-6 -46 4 -6 17 -14 30 -18 26 -9 30 -44 5 -52 -10 -3 -25 -9 -34 -14 -21 -11
-44 41 -34 78 7 28 7 32 0 126 -5 70 -11 90 -26 80 -7 -4 -9 -26 -5 -63 3 -31
2 -62 -3 -69 -4 -7 -4 -36 1 -63 6 -32 6 -55 -1 -62 -6 -8 -6 -30 0 -60 5 -30
5 -56 -1 -67 -5 -10 -6 -30 -1 -46 6 -23 6 -124 0 -234 0 -8 1 -63 3 -121 3
-58 2 -114 -2 -124 -4 -11 -2 -39 3 -64 7 -32 6 -50 -2 -63 -6 -10 -8 -24 -4
-31 4 -7 8 -130 9 -275 1 -145 5 -266 8 -269 15 -15 22 25 27 150 0 9 5 17 12
17 6 0 3 6 -7 13 -14 10 -17 21 -11 45 8 38 22 41 31 7 3 -14 10 -22 15 -19
13 8 49 -5 49 -18 0 -5 -13 -22 -30 -36 -26 -23 -43 -75 -22 -70 4 1 17 -1 28
-5 18 -6 21 -14 18 -52 -2 -24 1 -47 6 -50 5 -3 7 -12 4 -20 -4 -8 0 -17 8
-20 17 -7 12 -55 -6 -67 -8 -6 -7 -11 3 -17 9 -6 10 -10 2 -16 -9 -5 -9 -10
-1 -20 22 -27 8 -59 -31 -69 -31 -7 -39 -6 -58 13 -11 11 -21 28 -21 36 0 8
-4 15 -10 15 -5 0 -10 -7 -10 -15 0 -38 -96 -64 -157 -43 -23 8 -33 19 -37 41
-10 49 -7 122 6 135 9 9 9 12 0 12 -7 0 -12 13 -12 30 0 24 4 30 23 31 l22 0
-21 11 c-23 10 -22 7 -16 126 2 30 4 32 42 32 24 0 40 -5 40 -12 0 -9 3 -9 11
-1 13 13 3 36 -12 28 -5 -4 -25 -1 -44 6 -28 11 -35 18 -35 40 0 42 10 59 35
59 37 0 39 18 3 22 -32 3 -33 4 -33 53 l0 50 38 3 c36 3 37 2 37 -29 0 -40 5
-35 13 12 l5 36 -40 1 c-54 2 -58 7 -58 55 0 55 11 69 46 65 24 -2 30 -9 35
-38 6 -35 6 -35 9 -5 5 67 1 465 -5 468 -4 1 -6 -91 -5 -206 l1 -207 -36 17
c-35 17 -35 17 -35 80 0 60 1 63 24 63 38 0 41 18 4 22 -18 2 -32 6 -30 11 1
4 2 27 2 52 0 43 1 45 30 45 17 0 30 4 30 9 0 5 -13 11 -30 15 -24 4 -30 11
-30 30 0 13 -3 31 -6 40 -5 13 1 16 25 16 38 0 41 17 4 22 -27 3 -28 5 -28 63
0 58 1 60 30 66 29 6 27 8 -17 23 -13 4 -18 16 -18 46 0 22 3 40 8 41 4 0 20
2 37 4 16 2 32 -1 36 -6 11 -18 15 13 8 66 l-6 50 -1 -47 c-2 -53 -2 -53 -49
-36 -28 10 -33 17 -33 44 0 38 10 47 56 48 19 1 34 6 34 11 -1 6 -10 9 -22 7
-35 -6 -70 7 -64 24 3 8 1 26 -5 41 -7 20 -7 34 3 51 10 20 19 23 50 20 38 -4
38 -3 37 32 -2 26 -3 29 -6 10 -4 -23 -7 -25 -48 -22 l-44 4 0 190 0 190 55
-4 c44 -4 54 -2 49 9 -3 8 -5 31 -5 51 0 22 -3 32 -8 25 -5 -7 -7 -25 -6 -41
2 -26 0 -27 -37 -24 -38 4 -39 5 -39 43 0 24 5 39 13 39 9 0 9 2 -1 9 -10 6
-8 10 10 14 40 11 58 8 59 -10 0 -15 1 -15 8 2 10 25 2 97 -10 89 -5 -3 -9
-14 -9 -25 0 -11 -7 -19 -16 -19 -26 0 -53 42 -54 82 0 32 3 37 28 42 15 3 36
5 47 3 16 -1 20 4 21 26 1 16 -4 27 -12 27 -8 0 -14 -9 -14 -20 0 -18 -3 -19
-22 -9 -13 7 -29 15 -37 18 -7 4 -13 10 -12 14 0 4 1 22 1 41 0 28 4 34 24 38
28 6 41 0 48 -22 8 -23 28 33 21 59 -5 19 -7 20 -17 5 -8 -10 -23 -14 -41 -12
-24 2 -31 8 -33 31 -3 24 0 27 24 27 26 0 27 1 9 20 -9 10 -15 26 -11 35 3 9
-2 20 -14 27 -12 8 -20 24 -20 41 0 28 1 29 48 25 26 -1 48 0 50 5 6 20 1 77
-8 77 -5 0 -10 -13 -10 -30 0 -37 -6 -37 -49 -1 -29 25 -32 33 -26 60 6 27 11
31 41 31 20 0 34 -5 34 -12 0 -8 4 -8 14 2 9 10 12 27 9 48 -5 31 -23 46 -23
18 0 -41 -63 -11 -74 35 -5 23 -1 29 23 39 32 13 51 7 51 -16 0 -8 5 -14 10
-14 6 0 10 9 10 20 0 15 7 20 28 21 26 1 26 1 3 8 -12 3 -29 20 -36 36 l-13
30 -1 -27 c-1 -32 -1 -32 -38 -16 -36 16 -43 26 -43 66 0 31 2 32 40 32 31 0
40 -4 40 -17 1 -17 1 -17 11 0 6 10 20 22 32 27 l22 9 -22 0 c-16 1 -23 7 -23
20 0 11 -4 23 -10 26 -5 3 -10 -1 -10 -9 0 -19 -32 -21 -61 -5 -16 8 -18 13
-9 24 6 7 10 19 9 27 -5 38 2 48 31 48 25 0 30 -4 30 -24 0 -14 5 -28 10 -31
11 -7 15 33 11 113 -2 29 2 59 9 67 8 10 8 19 0 34 -11 22 -30 28 -30 11 0
-13 -21 -13 -55 0 -22 8 -25 13 -16 24 9 11 9 15 -1 19 -7 3 6 6 30 6 31 1 42
-3 42 -14 0 -8 5 -15 11 -15 5 0 7 5 4 10 -3 6 4 14 16 18 19 7 20 10 6 15
-10 4 -17 16 -17 27 0 21 -16 28 -22 9 -2 -7 -17 -8 -41 -4 l-37 7 0 53 c0 51
1 54 28 57 27 4 23 8 -23 23 -10 3 -15 17 -15 40 0 30 3 35 24 35 14 0 28 5
31 10 3 6 19 10 35 10 16 0 45 9 64 19 19 11 37 17 40 14 3 -4 6 -44 6 -90 0
-63 3 -84 13 -80 8 2 13 28 14 73 1 58 6 111 12 122 4 8 30 0 41 -13z m6000
-15 c0 -5 -5 -10 -11 -10 -5 0 -7 5 -4 10 3 6 8 10 11 10 2 0 4 -4 4 -10z
m-6750 -37 c78 -35 84 -48 82 -171 -1 -59 -2 -132 -2 -161 -1 -30 -5 -60 -11
-67 -6 -7 -6 -15 -1 -18 5 -3 10 -174 10 -383 2 -366 8 -913 11 -962 2 -50 24
-3 23 52 0 29 4 60 9 68 5 8 9 12 10 9 0 -3 2 -14 5 -25 2 -11 5 -78 7 -148 3
-132 -5 -166 -33 -132 -8 10 -16 12 -20 6 -8 -14 -3 -1412 5 -1469 11 -72 17
-40 20 99 2 77 8 136 14 142 6 6 11 9 12 6 0 -2 2 -106 5 -232 4 -196 3 -227
-10 -227 -19 0 -30 34 -21 67 8 33 -3 85 -17 77 -6 -4 -7 -27 -4 -58 9 -66 2
-83 -41 -101 -45 -19 -51 -19 -56 3 -4 13 -5 13 -6 -4 -1 -14 -12 -26 -31 -34
-33 -14 -37 -13 -40 10 -6 38 1 50 25 50 34 0 32 18 -2 22 -23 2 -29 8 -31 36
-3 26 1 34 20 41 22 9 22 10 2 10 -15 1 -23 9 -26 26 -6 27 5 40 37 48 15 4
13 5 -7 6 -27 1 -28 2 -28 61 l0 60 52 0 c46 0 63 13 20 15 -9 1 -29 2 -44 3
-27 2 -28 5 -28 51 0 41 4 51 20 56 11 4 18 11 14 16 -3 6 -13 8 -21 5 -11 -5
-13 3 -11 42 3 43 5 47 33 53 l30 5 -32 8 c-32 7 -33 9 -33 61 0 59 14 75 64
75 14 0 28 5 31 10 4 6 -13 10 -44 10 l-51 0 0 55 0 55 58 1 57 1 -47 8 c-64
11 -68 15 -68 66 l0 44 51 0 c31 0 48 4 44 10 -3 6 -17 10 -31 10 -41 0 -64
18 -64 49 0 28 1 28 50 26 62 -3 66 10 6 19 -43 7 -44 7 -49 54 -6 56 0 64 47
64 20 0 39 4 42 9 3 5 -13 9 -34 9 -49 0 -61 14 -55 63 5 38 8 40 73 50 15 3
9 5 -15 6 -52 1 -65 15 -65 69 0 35 4 45 20 49 25 7 26 23 1 23 -16 0 -20 9
-23 49 -4 57 7 71 57 71 22 0 34 4 30 10 -3 6 -26 10 -51 10 l-44 0 0 55 c0
37 4 55 13 55 9 0 9 2 0 8 -8 5 -11 61 -12 186 l0 178 49 -4 c44 -4 50 -3 50
14 0 15 -5 17 -25 12 -14 -3 -37 -3 -51 0 -22 6 -25 11 -19 34 4 15 8 34 10
42 1 11 14 15 44 15 43 0 52 13 31 45 -8 13 -10 12 -10 -2 0 -21 -8 -22 -44
-8 -25 9 -37 40 -16 40 6 0 10 9 10 20 0 15 7 20 25 20 14 0 25 -6 25 -12 0
-23 20 16 20 39 0 27 -19 41 -31 22 -14 -22 -44 3 -47 40 -3 32 -3 33 35 30
l38 -4 -3 63 c-2 34 1 62 7 62 8 0 6 22 -5 59 -3 10 -7 11 -18 1 -11 -9 -20
-9 -37 0 -20 11 -20 13 -5 28 14 14 20 15 37 4 29 -18 36 -9 30 40 -6 41 -7
43 -41 43 -33 0 -35 2 -38 37 -3 30 1 38 18 43 12 4 27 2 32 -3 7 -7 16 -4 27
6 25 24 7 42 -40 42 -37 0 -39 2 -39 30 0 26 3 30 29 30 16 0 31 -6 34 -12 2
-7 8 -1 12 14 9 34 -1 66 -16 51 -16 -16 -59 -3 -59 17 0 22 24 32 55 24 23
-6 23 -4 22 66 0 46 4 74 11 79 9 6 8 15 -3 39 -14 27 -20 31 -46 25 -24 -5
-29 -2 -29 15 0 24 23 35 40 19 10 -9 14 -9 17 1 3 6 19 12 36 13 l32 1 -27
10 c-16 5 -28 16 -28 24 0 10 -14 14 -50 14 -49 0 -50 1 -50 30 0 21 5 30 17
30 14 0 15 2 1 18 -22 25 -30 81 -22 167 7 73 7 74 33 72 14 -2 46 -13 71 -24z
m1753 10 c-7 -2 -19 -2 -25 0 -7 3 -2 5 12 5 14 0 19 -2 13 -5z m2720 -16 c2
-7 2 -35 0 -62 -5 -50 -5 -50 -42 -51 -20 0 -82 -4 -138 -8 l-103 -7 1 23 c0
13 3 17 6 11 7 -20 43 -16 43 5 0 9 4 13 8 7 11 -16 34 -17 43 -3 7 10 9 10 9
-2 0 -11 2 -12 8 -3 7 11 56 20 125 22 15 1 27 5 27 11 0 6 -55 7 -147 3 -124
-6 -268 -7 -308 -3 -5 1 -29 -2 -51 -6 -23 -3 -49 -2 -59 3 -12 7 35 15 161
27 199 20 290 31 349 44 44 9 61 6 68 -11z m2857 -6 c0 -5 -30 -12 -67 -15
-38 -4 -85 -9 -105 -11 -65 -9 -42 13 25 23 84 13 147 14 147 3z m-5843 -48
c-3 -10 -5 -2 -5 17 0 19 2 27 5 18 2 -10 2 -26 0 -35z m5206 32 c4 -8 2 -17
-2 -20 -19 -11 -152 -25 -236 -23 -81 1 -84 2 -35 8 l55 6 -50 6 c-36 4 -27 5
33 4 45 0 82 2 82 6 0 24 145 37 153 13z m755 -6 c2 -10 -11 -15 -48 -17 -53
-3 -64 6 -27 24 29 15 71 11 75 -7z m-9024 -14 c3 -8 1 -15 -4 -15 -6 0 -10 7
-10 15 0 8 2 15 4 15 2 0 6 -7 10 -15z m8914 -2 c2 -8 -6 -13 -22 -13 -17 0
-26 5 -26 16 0 19 41 16 48 -3z m-5416 -35 c-8 -8 -9 -4 -5 13 4 13 8 18 11
10 2 -7 -1 -18 -6 -23z m4400 21 c2 -5 39 -13 83 -16 44 -4 74 -8 67 -11 -6
-2 -10 -8 -6 -13 3 -5 -11 -9 -32 -9 -20 0 -64 -4 -98 -10 -70 -11 -352 -39
-473 -47 -70 -4 -83 -3 -83 10 0 19 16 25 104 39 39 6 91 14 116 18 l45 7 -45
3 c-73 3 -9 18 80 18 41 0 66 -2 55 -5 -11 -3 -24 -9 -30 -15 -13 -12 156 1
169 13 15 14 0 22 -21 11 -10 -6 -32 -7 -48 -4 -30 6 -30 7 10 13 65 10 103
10 107 -2z m-7762 -24 c0 -5 -4 -10 -10 -9 -5 1 -24 2 -41 3 -17 0 -28 5 -24
11 8 13 75 8 75 -5z m3343 -87 c28 -4 34 -28 8 -35 -23 -6 -30 -48 -9 -55 6
-2 8 -10 4 -16 -8 -13 -27 -16 -25 -4 1 4 1 22 0 39 -1 26 -6 34 -26 39 -21 5
-24 11 -20 35 4 19 1 29 -7 29 -9 0 -9 3 2 9 8 6 18 7 22 5 4 -3 9 5 9 18 1
14 5 7 12 -19 7 -30 15 -43 30 -45z m-3513 68 c0 -3 -4 -8 -10 -11 -5 -3 -10
-1 -10 4 0 6 5 11 10 11 6 0 10 -2 10 -4z m1745 -84 c0 -113 -19 -112 -22 1
-1 65 1 87 10 84 8 -2 12 -31 12 -85z m4025 66 c0 -4 -9 -8 -20 -8 -11 0 -20
4 -20 8 0 4 9 8 20 8 11 0 20 -4 20 -8z m-5910 -35 c0 -14 -13 -16 -47 -7 -13
4 -20 10 -17 15 8 14 64 7 64 -8z m5744 8 c8 -12 -119 -23 -219 -19 l-80 3 75
11 c95 14 217 17 224 5z m-2507 -48 c-3 -10 -5 -4 -5 12 0 17 2 24 5 18 2 -7
2 -21 0 -30z m-3617 1 c0 -8 -7 -14 -15 -14 -15 0 -21 21 -9 33 10 9 24 -2 24
-19z m553 19 c-7 -2 -19 -2 -25 0 -7 3 -2 5 12 5 14 0 19 -2 13 -5z m3330 -20
c-7 -2 -19 -2 -25 0 -7 3 -2 5 12 5 14 0 19 -2 13 -5z m-3903 -43 c0 -5 -7
-10 -15 -10 -8 0 -15 5 -15 10 0 6 7 10 15 10 8 0 15 -4 15 -10z m-290 -19 c0
-6 -4 -13 -10 -16 -5 -3 -10 1 -10 9 0 9 5 16 10 16 6 0 10 -4 10 -9z m3160
-11 c0 -16 7 -20 31 -20 43 0 32 -24 -13 -28 -29 -2 -36 1 -41 17 -3 12 -1 24
4 27 5 3 7 10 4 15 -4 5 -1 9 4 9 6 0 11 -9 11 -20z m-3320 6 c0 -2 -9 -6 -20
-9 -11 -3 -20 -1 -20 4 0 5 9 9 20 9 11 0 20 -2 20 -4z m250 -16 c0 -5 -9 -10
-21 -10 -11 0 -17 5 -14 10 3 6 13 10 21 10 8 0 14 -4 14 -10z m917 -1145 c2
-700 -1 -1143 -7 -1149 -6 -6 -15 -4 -25 4 -19 16 -19 25 2 46 13 13 14 19 5
22 -17 5 -17 178 1 185 8 3 6 9 -7 19 -18 14 -18 17 -2 48 9 19 12 36 7 39
-17 11 -23 270 -25 1094 0 543 2 828 9 831 6 3 17 4 25 3 13 -2 15 -138 17
-1142z m-411 1108 c-10 -10 -19 5 -10 18 6 11 8 11 12 0 2 -7 1 -15 -2 -18z
m96 -1210 c1 -681 3 -1265 4 -1298 0 -33 -2 -80 -6 -105 l-6 -45 -7 60 c-4 33
-7 206 -7 385 0 282 -3 517 -9 823 0 49 -5 76 -11 72 -5 -3 -10 -19 -10 -36 0
-39 -17 -37 -25 4 -4 17 -12 38 -17 44 -7 9 -6 23 2 43 7 16 10 36 7 44 -6 16
16 40 26 29 4 -3 7 -22 7 -42 0 -28 3 -32 12 -23 10 10 13 128 13 503 1 481 0
490 -19 485 -39 -10 -78 39 -46 59 6 3 10 23 11 43 0 20 4 46 9 57 6 15 10 4
15 -42 4 -35 12 -63 16 -63 5 0 9 44 9 98 0 101 6 142 21 142 5 0 10 -530 11
-1237z m8133 1226 c-33 -4 -104 -12 -157 -17 -54 -6 -101 -13 -106 -16 -5 -3
-71 -10 -147 -17 -103 -8 -144 -8 -162 0 -14 7 -23 15 -19 18 7 7 496 40 591
40 l60 0 -60 -8z m1108 4 c-7 -2 -19 -2 -25 0 -7 3 -2 5 12 5 14 0 19 -2 13
-5z m-8085 -32 c20 -12 5 -81 -17 -80 -10 0 -11 2 -3 6 20 8 14 20 -13 27 -42
11 -33 45 15 55 3 0 11 -3 18 -8z m7837 -1 c-3 -5 -13 -10 -21 -10 -8 0 -12 5
-9 10 3 6 13 10 21 10 8 0 12 -4 9 -10z m-8555 -10 c0 -5 7 -7 15 -4 11 5 15
-1 15 -25 0 -17 -4 -31 -10 -31 -5 0 -10 6 -10 13 0 8 -4 7 -10 -3 -5 -8 -7
-32 -3 -52 4 -25 2 -38 -6 -38 -7 0 -11 26 -11 75 0 43 4 75 10 75 6 0 10 -4
10 -10z m1449 -37 c1 -7 -6 -13 -14 -13 -15 0 -21 40 -8 54 7 7 21 -18 22 -41z
m1781 17 c0 -5 -7 -10 -15 -10 -8 0 -15 -9 -15 -20 0 -11 6 -20 14 -20 13 0
26 -20 26 -40 0 -8 -84 5 -101 15 -16 11 -10 22 21 35 18 8 30 20 30 31 0 12
7 19 20 19 11 0 20 -4 20 -10z m5308 -7 c-10 -2 -28 -2 -40 0 -13 2 -5 4 17 4
22 1 32 -1 23 -4z m-9034 -18 c-4 -8 -8 -15 -10 -15 -2 0 -4 7 -4 15 0 8 4 15
10 15 5 0 7 -7 4 -15z m2366 -25 c0 -40 0 -40 -40 -40 -33 0 -38 3 -34 18 15
45 29 62 51 62 20 0 23 -5 23 -40z m172 11 c-2 -8 3 -11 12 -8 15 6 46 -16 46
-33 0 -13 -39 -23 -66 -16 -20 5 -24 13 -24 42 0 29 3 35 18 32 9 -2 16 -10
14 -17z m-3332 -14 c0 -26 -9 -39 -20 -32 -10 6 0 55 11 55 5 0 9 -10 9 -23z
m10015 -8 c11 1 27 2 35 4 32 5 23 -18 -10 -26 -58 -15 -160 -20 -160 -8 0 7
-25 11 -67 11 -36 0 -64 3 -61 6 8 8 210 22 228 16 8 -3 24 -4 35 -3z m-8935
-8 c0 -6 -4 -13 -10 -16 -5 -3 -10 1 -10 9 0 9 5 16 10 16 6 0 10 -4 10 -9z
m254 -52 c-3 -5 -12 -9 -20 -9 -14 0 -21 50 -7 63 8 9 34 -43 27 -54z m672 14
c0 -27 1 -118 2 -203 2 -85 3 -159 2 -165 -4 -39 1 -389 7 -575 12 -326 10
-513 -5 -518 -7 -2 -9 -9 -5 -15 3 -6 8 -231 10 -501 1 -270 5 -525 8 -566 14
-191 17 -284 10 -325 -6 -43 -8 -45 -40 -45 l-35 0 2 257 c0 176 4 260 12 265
8 5 7 8 -1 8 -9 0 -13 18 -13 55 0 45 3 55 18 56 16 1 16 2 0 6 -22 5 -26 83
-5 83 8 0 9 2 1 8 -14 9 -20 478 -16 1372 1 366 2 707 2 758 0 90 1 92 24 92
21 0 23 -4 22 -47z m1785 -77 c6 -6 9 -6 9 2 0 7 9 12 19 12 11 0 21 6 23 12
17 50 24 -1626 8 -1847 l-7 -100 -3 100 c-2 55 -5 81 -7 58 -5 -53 -23 -57
-24 -5 -1 20 -5 48 -9 62 -5 16 -9 -29 -11 -120 -5 -248 -16 724 -16 1355 1
330 2 573 4 540 2 -33 8 -64 14 -69z m3277 98 c30 -9 -3 -24 -53 -24 -52 0
-72 10 -61 29 5 8 84 5 114 -5z m-4493 -65 c-6 -18 -7 -18 -27 0 -19 19 -19
20 -1 38 18 18 18 18 26 -1 4 -10 5 -27 2 -37z m160 11 c-3 -6 -10 -10 -16
-10 -10 0 -12 33 -2 44 9 9 26 -22 18 -34z m-1668 -22 c-3 -7 -5 -2 -5 12 0
14 2 19 5 13 2 -7 2 -19 0 -25z m3434 15 c1 -10 0 -34 -1 -54 -1 -19 5 -53 12
-75 11 -33 14 -70 9 -121 0 -7 -10 -13 -21 -13 -17 0 -20 7 -20 40 0 22 -4 40
-10 40 -5 0 -10 9 -10 20 0 11 4 20 8 20 5 0 8 30 7 68 -1 37 0 73 2 80 7 18
23 15 24 -5z m2570 -9 c12 -33 8 -284 -5 -284 -6 0 -5 -5 2 -12 17 -17 15 -54
-3 -71 -11 -11 -11 -17 -3 -19 17 -6 19 -147 2 -171 -9 -14 -13 -15 -17 -5 -3
11 -8 11 -26 0 -12 -7 -21 -8 -21 -2 0 6 -67 10 -182 11 -101 0 -201 4 -223 8
l-40 7 35 7 c19 3 107 6 195 7 170 0 252 7 261 21 3 5 -1 9 -8 10 -48 3 -242
8 -337 8 -87 1 -112 4 -103 13 10 10 42 12 302 16 91 2 94 3 71 19 -20 13 -49
16 -170 15 -80 0 -164 3 -186 7 -37 7 -33 8 43 15 50 5 82 13 82 20 0 6 4 5 9
-3 6 -9 18 -12 36 -7 15 4 79 7 143 7 88 0 112 3 103 12 -8 8 -74 13 -214 14
-111 2 -215 7 -232 12 -28 9 -27 9 19 10 27 1 46 4 42 8 -3 4 -45 6 -93 4 -68
-2 -91 -7 -114 -23 l-28 -21 -56 21 c-62 24 -105 28 -122 11 -7 -7 -32 -9 -69
-5 -58 6 -202 15 -256 16 -16 0 -28 3 -28 8 0 4 34 9 75 10 41 2 89 7 107 13
18 5 82 9 143 9 60 0 127 5 147 10 25 7 63 8 117 1 55 -7 99 -7 143 1 64 11
88 12 285 16 98 2 112 4 106 18 -5 14 -28 15 -167 13 -203 -3 -236 -1 -236 10
0 5 18 12 40 16 116 20 -27 37 -285 35 -99 0 -191 -2 -205 -2 -55 -4 -110 3
-110 12 0 5 19 8 43 7 52 -2 375 13 483 22 l79 7 -55 18 c-45 15 -66 16 -116
9 -33 -5 -83 -7 -110 -4 l-49 6 51 12 c28 7 60 9 72 7 29 -8 234 15 249 28 7
5 17 7 22 4 15 -10 234 15 250 28 51 40 98 44 112 10z m-6811 -30 c0 -13 -4
-24 -10 -24 -5 0 -10 14 -10 31 0 17 4 28 10 24 6 -3 10 -17 10 -31z m3065 15
c-4 -5 5 -9 18 -9 32 0 57 -28 36 -41 -31 -19 -79 -6 -79 21 0 28 11 51 21 44
5 -3 7 -10 4 -15z m604 -11 c19 -12 19 -12 0 -28 -18 -17 -18 -17 5 -28 l24
-10 6 -504 c4 -277 6 -678 4 -893 -3 -379 -4 -390 -23 -390 -12 0 -22 9 -26
25 -5 17 -7 6 -8 -34 -1 -48 -4 -58 -13 -48 -10 10 -14 220 -16 967 -2 858 -1
955 13 955 8 0 24 -5 34 -12z m4256 -14 c14 -22 15 -28 4 -35 -8 -5 -18 -9
-24 -9 -5 0 -2 -5 8 -11 23 -13 22 -35 -2 -42 -14 -3 -17 -11 -14 -31 6 -29
10 -27 -90 -31 -63 -3 -98 15 -77 40 8 9 6 14 -5 19 -11 4 -15 20 -15 59 0 30
3 57 7 60 3 4 48 7 99 7 88 0 92 -1 109 -26z m-7635 1 c0 -8 -4 -15 -10 -15
-5 0 -10 7 -10 15 0 8 5 15 10 15 6 0 10 -7 10 -15z m740 0 c0 -8 -4 -15 -10
-15 -5 0 -7 7 -4 15 4 8 8 15 10 15 2 0 4 -7 4 -15z m35 -22 c-7 -17 -8 -17
-15 2 -9 24 -2 41 12 27 6 -6 7 -19 3 -29z m6437 31 l37 -6 0 -59 -1 -59 -81
-2 c-45 0 -89 0 -97 1 -8 1 -59 3 -112 4 -53 2 -101 6 -105 11 -4 4 -9 30 -10
56 l-1 49 101 4 c56 1 131 4 167 5 36 1 82 -1 102 -4z m-3235 -46 c-3 -8 -6
-5 -6 6 -1 11 2 17 5 13 3 -3 4 -12 1 -19z m5080 7 l35 -15 -7 -97 c-4 -54 -9
-101 -11 -105 -3 -4 -15 -4 -27 1 -12 4 -27 6 -33 4 -12 -4 -26 189 -17 215 7
16 16 15 60 -3z m-9347 -31 c0 -13 -4 -24 -10 -24 -5 0 -10 14 -10 31 0 17 4
28 10 24 6 -3 10 -17 10 -31z m2480 5 c0 -20 -15 -26 -25 -9 -9 15 3 43 15 35
5 -3 10 -15 10 -26z m1378 -47 c20 -3 29 -25 9 -23 -4 1 -16 1 -27 1 -18 0
-20 6 -19 53 2 51 2 51 8 12 5 -32 11 -41 29 -43z m322 68 c0 -5 -5 -10 -11
-10 -5 0 -7 5 -4 10 3 6 8 10 11 10 2 0 4 -4 4 -10z m4265 -9 c35 -14 -60 -24
-144 -15 l-76 8 60 7 c89 9 138 9 160 0z m1012 -33 c7 -16 6 -34 -2 -58 l-12
-34 -6 33 c-15 72 -2 108 20 59z m-8931 -15 c-10 -10 -19 5 -10 18 6 11 8 11
12 0 2 -7 1 -15 -2 -18z m544 -3 c0 -10 -4 -22 -10 -25 -6 -4 -10 7 -10 25 0
18 4 29 10 25 6 -3 10 -15 10 -25z m-40 10 c0 -5 -5 -10 -11 -10 -5 0 -7 5 -4
10 3 6 8 10 11 10 2 0 4 -4 4 -10z m7565 0 c-18 -8 -18 -9 5 -10 l25 -2 -25
-8 c-18 -6 -8 -8 40 -9 83 -2 119 -21 40 -21 -60 0 -95 -14 -72 -28 10 -7 6
-13 -14 -27 -24 -15 -40 -17 -118 -10 -50 4 -103 8 -118 9 -19 1 -28 6 -28 18
0 9 -6 18 -12 21 -10 3 -10 7 -1 19 10 11 10 17 0 27 -10 10 -8 12 7 9 15 -2
20 -11 20 -38 1 -40 29 -50 34 -13 3 19 11 23 55 26 l52 3 -58 2 c-62 2 -68
15 -14 31 42 12 210 13 182 1z m-5484 -34 c15 -19 16 -23 3 -37 -21 -24 -68
-10 -72 20 -8 55 31 64 69 17z m1069 14 c0 -5 -2 -10 -4 -10 -3 0 -8 5 -11 10
-3 6 -1 10 4 10 6 0 11 -4 11 -10z m-4180 -25 c0 -8 -4 -15 -10 -15 -5 0 -10
7 -10 15 0 8 5 15 10 15 6 0 10 -7 10 -15z m4140 0 c0 -16 -22 -19 -83 -8 -51
8 -28 23 36 23 35 0 47 -4 47 -15z m1298 1 c12 -1 22 -4 22 -8 0 -5 -28 -8
-62 -8 -60 1 -62 1 -38 15 14 8 32 12 40 8 8 -3 25 -7 38 -7z m135 7 c-7 -2
-19 -2 -25 0 -7 3 -2 5 12 5 14 0 19 -2 13 -5z m-368 -33 c-3 -4 -24 -7 -48
-5 -64 5 -65 6 -22 20 40 12 82 4 70 -15z m-4665 -5 c0 -25 -23 -35 -35 -15
-10 16 2 40 20 40 9 0 15 -9 15 -25z m1940 -11 c0 -26 -17 -33 -26 -9 -8 20 3
48 16 40 5 -3 10 -17 10 -31z m4920 26 c3 0 -2 -5 -10 -10 -19 -12 -150 -13
-150 -1 0 5 10 11 23 13 18 2 116 1 137 -2z m140 0 c0 -11 -65 -24 -79 -15
-24 14 -9 25 34 25 25 0 45 -4 45 -10z m-6470 -41 c0 -18 -4 -28 -10 -24 -5 3
-10 20 -10 36 0 18 4 28 10 24 6 -3 10 -20 10 -36z m3916 27 c8 -8 14 -16 14
-18 0 -2 -32 -3 -71 -2 -40 0 -91 -2 -114 -6 -27 -4 -49 -2 -59 5 -28 21 -18
27 32 21 26 -3 63 -2 82 3 54 14 100 12 116 -3z m2244 4 c0 -5 -16 -10 -35
-10 -19 0 -35 5 -35 10 0 6 16 10 35 10 19 0 35 -4 35 -10z m-3390 -10 c0 -5
-4 -10 -10 -10 -5 0 -10 5 -10 10 0 6 5 10 10 10 6 0 10 -4 10 -10z m47 4 c-3
-3 -12 -4 -19 -1 -8 3 -5 6 6 6 11 1 17 -2 13 -5z m-2861 -31 c-10 -10 -19 5
-10 18 6 11 8 11 12 0 2 -7 1 -15 -2 -18z m3071 21 c-3 -3 -12 -4 -19 -1 -8 3
-5 6 6 6 11 1 17 -2 13 -5z m38 -4 c3 -5 -1 -10 -9 -10 -9 0 -16 5 -16 10 0 6
4 10 9 10 6 0 13 -4 16 -10z m2030 0 c4 -6 -7 -10 -24 -10 -17 0 -31 5 -31 10
0 6 11 10 24 10 14 0 28 -4 31 -10z m2800 -10 c4 -6 -7 -10 -24 -10 -17 0 -31
5 -31 10 0 6 11 10 24 10 14 0 28 -4 31 -10z m-8965 -15 c0 -8 -4 -15 -10 -15
-5 0 -10 7 -10 15 0 8 5 15 10 15 6 0 10 -7 10 -15z m7869 -4 c12 -8 10 -11
-10 -15 -86 -18 -121 -13 -104 14 8 12 95 13 114 1z m1578 -13 c-3 -8 -6 -5
-6 6 -1 11 2 17 5 13 3 -3 4 -12 1 -19z m-5307 -5 c0 -15 -2 -16 -10 -3 -9 13
-11 13 -20 0 -5 -8 -10 -10 -10 -4 0 14 10 24 27 24 7 0 13 -8 13 -17z m4563
-2 c62 -1 52 -21 -11 -22 -26 -1 -58 -4 -72 -8 -25 -7 224 -21 305 -17 22 1
70 3 108 4 52 2 67 5 67 17 0 12 -16 15 -82 16 l-83 2 75 8 c41 5 81 11 88 14
8 3 12 -8 12 -38 l0 -42 -127 0 c-147 0 -332 -10 -340 -19 -4 -3 14 -6 38 -7
24 0 53 -4 64 -8 31 -12 -60 -21 -223 -21 -80 0 -143 -2 -141 -4 2 -2 82 -6
178 -10 188 -6 261 -25 106 -27 -247 -3 -346 -7 -352 -13 -3 -3 20 -6 53 -6
101 0 438 -10 441 -14 2 -2 -59 -7 -136 -11 -114 -5 -139 -9 -134 -21 4 -11
29 -14 107 -15 155 -2 39 -17 -141 -18 -88 -1 -143 -5 -143 -11 0 -8 246 -17
370 -13 174 5 385 3 388 -5 1 -5 -89 -11 -222 -14 -131 -4 -232 -10 -243 -17
-13 -8 15 -10 115 -11 81 0 132 -4 132 -10 0 -6 35 -10 86 -10 77 0 86 2 91
20 8 31 33 25 33 -9 0 -27 -3 -29 -52 -36 -29 -4 -110 -9 -179 -11 -89 -3
-144 -10 -185 -23 l-59 -20 57 2 c54 2 79 -6 65 -20 -4 -3 -35 -9 -69 -13
l-63 -7 55 -4 c30 -2 76 -4 102 -5 78 -2 59 -18 -32 -28 l-85 -10 70 -8 c98
-12 100 -14 15 -23 l-75 -9 50 -7 c28 -4 111 -8 185 -8 89 -1 130 -5 119 -11
-9 -5 -56 -8 -105 -5 -111 5 -184 -3 -184 -21 0 -7 8 -15 18 -17 9 -3 -5 -5
-32 -6 -39 -1 -47 2 -42 14 3 9 0 15 -9 15 -8 0 -15 -7 -15 -15 0 -13 -28 -15
-217 -13 l-218 3 -1 30 c0 17 4 36 9 43 7 9 4 17 -9 27 -18 14 -18 14 2 15 29
0 37 11 17 25 -15 11 -14 13 8 20 l24 9 -25 6 c-22 6 -25 11 -22 48 2 29 -1
42 -9 42 -7 0 -2 11 11 25 20 22 21 25 6 25 -23 0 -15 24 10 28 35 7 39 22 6
22 -29 0 -32 3 -28 25 3 18 0 25 -12 26 -9 0 0 9 22 19 37 17 37 18 15 25 -13
4 -29 14 -37 21 -11 12 -9 14 14 14 26 0 26 1 10 13 -18 13 -18 14 -1 21 17 6
17 7 0 20 -19 14 -13 36 11 36 8 0 14 5 14 10 0 6 -9 10 -20 10 -11 0 -20 5
-20 10 0 6 1 10 3 11 1 0 25 3 52 6 28 3 51 6 52 7 1 0 75 -2 165 -5 89 -4
185 -7 211 -8z m-5603 -21 c41 -34 33 -53 -21 -48 -31 3 -34 6 -37 41 -4 46
10 48 58 7z m4439 25 c-3 -2 -81 -7 -174 -10 -117 -4 -165 -2 -155 5 14 9 338
15 329 5z m-6999 -25 c0 -21 -24 -28 -35 -10 -8 14 3 30 21 30 8 0 14 -9 14
-20z m3640 10 c0 -5 -4 -10 -10 -10 -5 0 -10 5 -10 10 0 6 5 10 10 10 6 0 10
-4 10 -10z m4703 3 c-13 -2 -33 -2 -45 0 -13 2 -3 4 22 4 25 0 35 -2 23 -4z
m-7813 -45 c0 -10 -4 -18 -10 -18 -5 0 -10 15 -10 33 0 24 3 28 10 17 5 -8 10
-23 10 -32z m2809 28 c9 -11 9 -15 -1 -18 -22 -8 -58 4 -58 18 0 18 44 18 59
0z m261 -11 c0 -12 -13 -15 -55 -15 -30 0 -55 4 -55 9 0 14 19 19 68 20 31 1
42 -3 42 -14z m-4140 -15 c0 -11 -4 -20 -10 -20 -5 0 -10 9 -10 20 0 11 5 20
10 20 6 0 10 -9 10 -20z m2475 0 c7 -23 -2 -43 -16 -35 -12 8 -12 55 0 55 5 0
12 -9 16 -20z m1702 -2 c-3 -8 -6 -5 -6 6 -1 11 2 17 5 13 3 -3 4 -12 1 -19z
m-3156 -11 c-10 -9 -11 -8 -5 6 3 10 9 15 12 12 3 -3 0 -11 -7 -18z m4569 8
c0 -5 -22 -11 -48 -11 -26 -1 -74 -3 -107 -4 -33 -1 -87 -1 -120 0 -56 2 -58
3 -25 11 19 4 81 8 138 7 56 0 106 2 109 6 10 10 54 3 53 -9z m3778 4 c-2 -6
-8 -10 -13 -10 -5 0 -11 4 -13 10 -2 6 4 11 13 11 9 0 15 -5 13 -11z m-1829
-15 c2 -2 -88 -3 -200 -2 -156 1 -184 3 -119 8 81 6 310 2 319 -6z m321 6 c0
-5 -20 -10 -45 -10 -25 0 -45 5 -45 10 0 6 20 10 45 10 25 0 45 -4 45 -10z
m-3011 -9 c10 -6 -1 -9 -32 -9 -26 0 -45 4 -41 9 7 12 55 11 73 0z m350 -11
c-12 -7 -36 -7 -72 -1 -5 0 -6 5 -3 9 2 4 24 6 47 4 27 -3 37 -7 28 -12z
m-4659 -21 c0 -23 -28 -26 -37 -3 -6 16 15 37 29 28 4 -3 8 -14 8 -25z m3560
6 c0 -29 -6 -31 -26 -11 -20 20 -17 36 6 36 15 0 20 -7 20 -25z m810 15 c0 -5
-5 -10 -11 -10 -5 0 -7 5 -4 10 3 6 8 10 11 10 2 0 4 -4 4 -10z m73 3 c-7 -2
-21 -2 -30 0 -10 3 -4 5 12 5 17 0 24 -2 18 -5z m4483 -6 c10 4 14 -2 14 -21
0 -18 -4 -24 -15 -20 -10 4 -15 0 -15 -15 0 -36 -15 -23 -18 15 -2 37 8 69 15
47 3 -7 11 -9 19 -6z m-5191 -7 c3 -5 1 -10 -4 -10 -6 0 -11 5 -11 10 0 6 2
10 4 10 3 0 8 -4 11 -10z m5088 -32 c-3 -16 -10 -28 -15 -28 -6 0 -8 6 -5 14
3 8 1 16 -6 19 -8 2 -7 8 3 19 20 21 30 10 23 -24z m-251 25 c2 -5 1 -28 -3
-53 -6 -45 -6 -45 -7 -7 -2 41 7 38 -127 41 -38 1 -99 3 -135 6 -65 4 -65 4
30 10 150 10 239 11 242 3z m-9112 -24 c0 -11 -4 -17 -10 -14 -5 3 -10 13 -10
21 0 8 5 14 10 14 6 0 10 -9 10 -21z m6427 5 c-3 -3 -12 -4 -19 -1 -8 3 -5 6
6 6 11 1 17 -2 13 -5z m-5364 -19 c4 -8 2 -17 -3 -20 -6 -4 -10 3 -10 14 0 25
6 27 13 6z m2039 -15 c17 0 31 -26 22 -41 -6 -10 -45 -12 -68 -3 -17 6 -21 31
-10 59 6 14 8 14 24 0 9 -8 24 -15 32 -15z m4426 17 c3 -9 -322 -17 -363 -9
-28 5 -28 6 -7 11 35 9 367 7 370 -2z m352 3 c0 -5 -15 -10 -32 -10 -18 -1
-50 -3 -70 -6 -30 -5 -38 -2 -38 10 0 13 13 16 70 16 40 0 70 -4 70 -10z
m-1737 -21 c-8 -8 -16 -8 -30 0 -16 9 -14 10 12 11 21 0 26 -3 18 -11z m-5603
-29 c0 -10 -5 -22 -10 -25 -13 -8 -24 20 -16 41 8 20 26 9 26 -16z m1936 -17
c-10 -26 -29 1 -21 28 7 20 8 21 17 5 5 -9 7 -24 4 -33z m1414 32 c0 -10 -11
-15 -35 -15 -24 0 -35 5 -35 15 0 10 11 15 35 15 24 0 35 -5 35 -15z m258 -8
c3 -13 -4 -17 -31 -17 -19 0 -49 3 -66 6 -26 5 -29 9 -19 21 18 22 112 14 116
-10z m5369 1 c-3 -8 -6 -5 -6 6 -1 11 2 17 5 13 3 -3 4 -12 1 -19z m-5247 -13
c0 -8 -2 -15 -4 -15 -2 0 -6 7 -10 15 -3 8 -1 15 4 15 6 0 10 -7 10 -15z
m-4270 -11 c0 -8 -5 -12 -10 -9 -6 4 -8 11 -5 16 9 14 15 11 15 -7z m9449 -21
c-1 -34 -2 -35 -9 -13 -11 36 -11 50 0 50 6 0 10 -17 9 -37z m-5533 12 c-11
-8 -25 -15 -30 -15 -6 1 0 7 14 15 32 19 40 18 16 0z m3381 9 c-3 -3 -12 -4
-19 -1 -8 3 -5 6 6 6 11 1 17 -2 13 -5z m233 -4 c0 -9 -133 -18 -182 -12 -16
2 -28 7 -28 12 0 5 47 9 105 9 58 0 105 -4 105 -9z m265 -5 c0 -5 -17 -11 -37
-13 -30 -3 -38 0 -38 13 0 13 8 16 38 13 20 -2 37 -7 37 -13z m56 0 c-1 -15
-24 -12 -29 3 -3 9 2 13 12 10 10 -1 17 -7 17 -13z m1112 8 c-13 -2 -33 -2
-45 0 -13 2 -3 4 22 4 25 0 35 -2 23 -4z m-4842 -21 c-30 -2 -58 0 -62 5 -4 4
20 6 54 3 l62 -5 -54 -3z m-3051 -17 c0 -8 -4 -17 -10 -20 -6 -4 -10 5 -10 20
0 15 4 24 10 20 6 -3 10 -12 10 -20z m-48 -7 c-7 -7 -12 -8 -12 -2 0 14 12 26
19 19 2 -3 -1 -11 -7 -17z m3071 5 c-7 -2 -19 -2 -25 0 -7 3 -2 5 12 5 14 0
19 -2 13 -5z m-3557 -14 c10 -17 -13 -36 -27 -22 -12 12 -4 33 11 33 5 0 12
-5 16 -11z m-536 -15 c0 -8 -4 -12 -10 -9 -5 3 -10 10 -10 16 0 5 5 9 10 9 6
0 10 -7 10 -16z m3065 -4 c3 -5 11 -7 18 -4 7 2 22 -5 32 -16 24 -27 9 -43
-36 -38 -30 3 -34 7 -37 36 -3 30 10 43 23 22z m1028 3 c-7 -2 -19 -2 -25 0
-7 3 -2 5 12 5 14 0 19 -2 13 -5z m3157 -3 c-8 -5 -37 -9 -65 -8 l-50 1 45 7
c73 11 88 11 70 0z m280 -2 c0 -4 -54 -8 -121 -8 -74 0 -118 4 -114 10 7 11
235 10 235 -2z m250 3 c0 -10 -24 -21 -46 -21 -8 0 -14 7 -14 15 0 10 10 15
30 15 17 0 30 -4 30 -9z m105 -1 c15 -6 6 -9 -33 -9 -33 -1 -51 3 -47 9 7 12
52 12 80 0z m-5565 -35 c0 -40 -23 -57 -46 -33 -23 23 -8 68 22 68 21 0 24 -5
24 -35z m156 10 c8 -21 -6 -41 -17 -24 -12 19 -11 39 1 39 6 0 13 -7 16 -15z
m1404 -11 c0 -9 -11 -14 -30 -14 -27 0 -40 17 -25 32 10 10 55 -5 55 -18z
m-2823 -31 c-3 -10 -5 -2 -5 17 0 19 2 27 5 18 2 -10 2 -26 0 -35z m3087 32
c4 -12 -6 -15 -61 -15 -57 0 -64 2 -53 15 8 9 30 15 60 15 33 0 50 -5 54 -15z
m120 -20 c-10 -8 -13 -15 -7 -15 9 0 10 -7 3 -25 -5 -14 -6 -25 -2 -26 4 0 -2
-4 -13 -9 -15 -7 -16 -9 -4 -9 19 -1 48 -31 30 -31 -6 0 -11 -7 -11 -15 0 -8
-4 -15 -9 -15 -6 0 -11 -16 -13 -37 -2 -30 -7 -37 -27 -40 -28 -4 -36 -10 -36
-26 0 -7 -27 -13 -74 -15 -63 -3 -73 -2 -68 11 3 9 1 18 -6 20 -7 3 16 4 50 2
33 -1 66 -6 72 -9 18 -11 13 24 -6 42 -11 11 -33 17 -62 17 -35 0 -46 4 -49
18 -3 15 5 17 67 17 l71 0 0 -32 c1 -27 2 -30 11 -16 7 12 6 24 -1 38 -6 11
-10 26 -9 33 4 33 -2 67 -12 67 -8 0 -10 -12 -6 -34 5 -29 2 -35 -16 -40 -33
-9 -80 -7 -97 4 -13 8 -12 11 5 24 11 9 35 16 54 16 28 0 33 3 28 20 -3 13 0
20 9 20 8 0 14 5 14 10 0 6 -28 11 -62 12 l-63 2 75 5 c52 4 74 10 73 19 -2 8
14 12 54 12 52 0 55 -1 37 -15z m-4264 -11 c0 -8 -4 -12 -10 -9 -5 3 -10 10
-10 16 0 5 5 9 10 9 6 0 10 -7 10 -16z m536 5 c10 -17 -13 -36 -27 -22 -12 12
-4 33 11 33 5 0 12 -5 16 -11z m494 7 c0 -3 -4 -8 -10 -11 -5 -3 -10 -1 -10 4
0 6 5 11 10 11 6 0 10 -2 10 -4z m5787 -11 c3 -9 3 -18 0 -21 -7 -7 -412 -5
-460 3 -73 11 -24 18 171 24 108 3 216 6 240 7 30 1 44 -2 49 -13z m693 -5 c0
-6 -40 -10 -101 -10 -64 0 -98 4 -94 10 3 6 48 10 101 10 56 0 94 -4 94 -10z
m390 0 c0 -6 -37 -10 -92 -10 -64 0 -88 3 -78 10 20 13 170 13 170 0z m1473
-12 c8 -28 1 -38 -26 -38 -27 0 -57 19 -41 26 6 3 20 11 30 19 26 19 31 19 37
-7z m73 -26 c-14 -14 -16 -14 -22 1 -3 10 0 24 7 33 11 14 13 14 22 -1 6 -12
4 -22 -7 -33z m-3269 31 c-20 -2 -52 -2 -70 0 -17 2 0 4 38 4 39 0 53 -2 32
-4z m1006 0 c-7 -2 -21 -2 -30 0 -10 3 -4 5 12 5 17 0 24 -2 18 -5z m2294 -25
c-3 -8 -6 -5 -6 6 -1 11 2 17 5 13 3 -3 4 -12 1 -19z m-6393 -38 c22 0 46 -17
46 -32 0 -15 -41 -30 -54 -19 -7 6 -16 8 -19 4 -12 -11 -19 26 -11 55 5 20 8
23 11 10 3 -11 14 -18 27 -18z m3729 -20 c-7 -10 -9 -21 -5 -24 10 -6 8 -913
-1 -923 -4 -3 -2 -12 4 -19 7 -8 8 -21 3 -31 -11 -25 -12 -46 -2 -60 5 -6 5
-14 -2 -18 -6 -3 -7 -11 -4 -17 10 -16 14 -268 4 -268 -4 0 -6 -9 -3 -21 5
-18 2 -20 -38 -17 -38 3 -44 6 -43 26 0 18 -5 22 -33 22 -20 0 -33 -5 -33 -12
0 -9 -3 -10 -8 -2 -12 18 -121 34 -292 43 -186 9 -262 28 -97 24 82 -2 97 -1
77 8 l-25 11 28 12 29 13 -34 10 c-25 9 -28 11 -11 12 16 1 21 6 17 16 -4 8
-1 15 6 15 6 0 9 4 5 9 -3 6 3 14 12 20 16 9 16 11 -7 20 -21 8 -14 10 40 10
66 1 126 -18 65 -20 l-30 -1 33 -12 c37 -13 105 -9 96 5 -3 5 -19 9 -36 9 -56
0 -22 11 38 12 43 1 52 3 34 9 -14 4 -41 8 -60 9 -29 1 -32 3 -15 10 11 5 38
9 59 9 22 1 37 4 34 7 -3 3 -50 5 -104 5 -112 0 -164 7 -164 21 0 6 35 8 98 4
53 -4 153 -8 222 -10 l125 -3 -102 11 c-106 12 -129 20 -94 31 12 3 21 9 22
13 0 4 2 19 4 35 3 23 0 27 -22 27 -37 0 -22 11 20 15 24 2 37 -2 41 -11 6
-16 42 -19 51 -4 3 6 23 10 43 11 l37 1 -35 9 c-19 5 -84 11 -145 15 -102 5
-156 14 -89 14 16 0 36 5 44 10 11 7 3 10 -30 11 -25 1 -56 1 -70 0 -14 -2
-49 0 -79 4 -96 12 -35 22 112 19 101 -2 130 -1 102 6 -22 5 -55 9 -72 9 -18
1 -33 6 -33 12 0 8 16 10 50 5 32 -4 50 -3 50 4 0 6 -40 10 -107 10 -60 0
-115 5 -123 10 -10 6 34 8 125 5 106 -4 134 -2 115 6 -14 6 -62 11 -107 10
-73 -1 -83 1 -84 16 0 11 -3 13 -6 6 -2 -7 -17 -13 -31 -13 -21 0 -24 2 -12
10 13 9 13 10 0 11 -8 1 -18 1 -22 0 -5 0 -8 4 -8 10 0 9 38 11 138 8 75 -3
157 -2 182 1 l45 6 -45 7 c-25 3 -94 8 -153 11 -100 4 -144 16 -132 36 2 4 91
5 197 4 136 -3 186 -1 169 6 -13 6 -38 10 -55 9 -17 -1 -71 6 -120 15 -49 9
-120 16 -157 16 -39 0 -69 4 -69 10 0 6 54 10 141 10 108 0 140 3 137 13 -3 7
-30 14 -65 18 -32 3 -65 9 -72 13 -7 4 -26 2 -42 -4 -23 -10 -33 -10 -42 -1
-6 6 -22 11 -36 11 -21 0 -23 2 -11 10 9 6 92 9 203 7 103 -1 187 1 187 6 0 6
-40 11 -78 10 -35 -2 -293 25 -299 30 -13 14 8 19 104 22 54 2 102 4 106 4 5
1 5 6 2 11 -3 6 -50 10 -103 10 -56 1 -110 6 -127 14 l-30 13 49 7 48 8 -27
14 c-19 10 -66 14 -159 15 -72 0 -149 4 -171 8 -39 7 -38 7 38 19 43 7 83 9
89 6 6 -4 14 0 19 7 6 10 9 11 9 2 0 -8 15 -13 40 -13 22 0 40 5 40 10 0 6 19
10 42 10 23 0 38 3 34 7 -4 4 -83 10 -176 13 -154 5 -193 10 -178 26 3 3 80 7
171 9 165 4 241 17 167 29 -19 3 -60 5 -90 5 -107 -2 -160 1 -160 10 0 5 60
11 133 13 72 3 140 8 149 13 41 17 -2 25 -138 25 -82 0 -144 4 -144 9 0 13 34
23 68 21 54 -4 46 4 -13 11 -49 5 -42 6 35 4 196 -6 571 -7 577 -1 4 3 4 8 1
11 -2 3 -103 7 -223 10 -121 3 -221 8 -224 10 -14 15 30 19 202 21 242 2 228
1 221 19 -5 13 -37 15 -193 16 -102 1 -197 4 -211 8 -44 13 59 23 219 21 80
-1 166 1 191 6 l45 8 -35 9 c-19 6 -120 11 -224 13 -176 3 -207 6 -194 19 2 3
97 6 209 6 112 1 213 5 224 9 30 12 54 -14 38 -40z m-6816 18 c-3 -8 -6 -5 -6
6 -1 11 2 17 5 13 3 -3 4 -12 1 -19z m543 -8 c0 -21 -24 -28 -35 -10 -8 14 3
30 21 30 8 0 14 -9 14 -20z m490 5 c0 -8 -4 -15 -10 -15 -5 0 -7 7 -4 15 4 8
8 15 10 15 2 0 4 -7 4 -15z m27 -7 c-3 -8 -6 -5 -6 6 -1 11 2 17 5 13 3 -3 4
-12 1 -19z m1421 0 c-2 -13 -7 -23 -13 -23 -5 0 -11 10 -13 23 -2 15 2 22 13
22 11 0 15 -7 13 -22z m5062 12 c0 -6 -38 -10 -95 -10 -57 0 -95 4 -95 10 0 6
38 10 95 10 57 0 95 -4 95 -10z m306 2 c-7 -12 -126 -15 -126 -3 0 7 26 11 66
11 36 0 63 -3 60 -8z m-1683 -9 c-13 -2 -33 -2 -45 0 -13 2 -3 4 22 4 25 0 35
-2 23 -4z m-2268 -28 c0 -5 -17 -11 -37 -13 -30 -3 -38 0 -38 13 0 13 8 16 38
13 20 -2 37 -7 37 -13z m-3895 -30 c0 -8 -4 -15 -10 -15 -5 0 -10 7 -10 15 0
8 5 15 10 15 6 0 10 -7 10 -15z m3837 -17 c-3 -8 -6 -5 -6 6 -1 11 2 17 5 13
3 -3 4 -12 1 -19z m43 1 c0 -5 -4 -9 -10 -9 -5 0 -10 7 -10 16 0 8 5 12 10 9
6 -3 10 -10 10 -16z m1179 -5 c13 -15 25 -47 30 -82 6 -39 9 -47 11 -27 2 28
3 27 11 -10 12 -58 11 -72 -6 -89 -8 -8 -19 -32 -24 -53 l-9 -38 -2 35 -2 35
-10 -42 c-13 -60 -34 -55 -43 10 -14 95 -4 287 14 287 4 0 17 -12 30 -26z
m1191 16 c-15 -9 -117 -6 -128 4 -3 3 28 6 69 6 51 0 69 -3 59 -10z m925 0
c-3 -5 -13 -10 -21 -10 -8 0 -14 5 -14 10 0 6 9 10 21 10 11 0 17 -4 14 -10z
m365 1 c0 -5 -13 -11 -29 -13 -44 -7 -161 3 -155 13 7 12 184 12 184 0z m297
3 c-11 -11 -106 -14 -112 -4 -4 6 17 10 56 10 34 0 60 -3 56 -6z m58 -4 c-3
-5 -13 -10 -21 -10 -8 0 -14 5 -14 10 0 6 9 10 21 10 11 0 17 -4 14 -10z
m-7359 -15 c3 -8 3 -19 -1 -25 -10 -16 -35 7 -28 26 7 18 22 18 29 -1z m6731
9 c-3 -3 -12 -4 -19 -1 -8 3 -5 6 6 6 11 1 17 -2 13 -5z m-6210 -36 c-3 -7 -5
-2 -5 12 0 14 2 19 5 13 2 -7 2 -19 0 -25z m5406 15 c-7 -2 -19 -2 -25 0 -7 3
-2 5 12 5 14 0 19 -2 13 -5z m-3983 -33 c0 -10 -4 -21 -9 -25 -12 -7 -25 31
-16 45 9 15 25 2 25 -20z m648 -34 c3 -12 -4 -16 -26 -16 -47 0 -62 10 -62 39
0 15 3 30 6 34 10 9 79 -38 82 -57z m6547 57 c-22 -3 -45 -9 -51 -14 -8 -6
-14 -6 -18 0 -9 13 12 20 64 19 l45 -1 -40 -4z m-555 -13 c0 -6 -38 -10 -97
-9 -67 1 -88 4 -68 9 45 12 165 12 165 0z m-9120 -16 c0 -8 -5 -12 -10 -9 -6
4 -8 11 -5 16 9 14 15 11 15 -7z m6160 6 c0 -5 -9 -10 -20 -10 -11 0 -20 5
-20 10 0 6 9 10 20 10 11 0 20 -4 20 -10z m1625 0 c18 -8 17 -9 -7 -9 -14 -1
-34 -4 -44 -8 -16 -6 -17 -5 -4 10 17 18 26 19 55 7z m-1572 -7 c-7 -2 -19 -2
-25 0 -7 3 -2 5 12 5 14 0 19 -2 13 -5z m990 0 c-7 -2 -21 -2 -30 0 -10 3 -4
5 12 5 17 0 24 -2 18 -5z m322 -3 c13 -6 -16 -9 -82 -9 -63 -1 -103 3 -103 9
0 12 156 12 185 0z m353 0 c-10 -6 -25 -7 -40 -1 -20 9 -18 10 17 10 31 0 36
-2 23 -9z m-7342 -45 c-6 -22 -9 -25 -21 -15 -18 15 -19 32 -3 48 18 18 32 -2
24 -33z m3349 36 c-3 -6 2 -14 11 -19 13 -7 7 -11 -26 -16 -47 -7 -55 -4 -47
18 4 9 15 13 27 11 11 -2 20 0 20 6 0 5 5 9 11 9 5 0 8 -4 4 -9z m52 -7 c-3
-3 -12 -4 -19 -1 -8 3 -5 6 6 6 11 1 17 -2 13 -5z m2110 -10 c-3 -3 -12 -4
-19 -1 -8 3 -5 6 6 6 11 1 17 -2 13 -5z m-6051 -51 c-11 -11 -19 6 -11 24 8
17 8 17 12 0 3 -10 2 -21 -1 -24z m1031 15 c-3 -8 -6 -5 -6 6 -1 11 2 17 5 13
3 -3 4 -12 1 -19z m30 0 c-3 -8 -6 -5 -6 6 -1 11 2 17 5 13 3 -3 4 -12 1 -19z
m3164 -10 c5 -7 9 -25 9 -40 0 -20 6 -27 22 -30 14 -2 22 -11 23 -25 1 -13 -3
-23 -8 -23 -5 0 -7 -13 -4 -29 4 -19 2 -31 -6 -35 -9 -3 -8 -7 3 -15 12 -9 13
-14 3 -31 -7 -11 -13 -29 -13 -39 0 -21 -22 -41 -27 -25 -2 5 -8 16 -13 24 -8
13 -12 12 -25 -7 -13 -19 -19 -21 -40 -11 -35 16 -32 38 5 38 17 0 30 5 30 11
0 8 -20 10 -69 5 -47 -5 -71 -3 -76 4 -10 17 0 22 44 24 33 0 40 5 44 23 4 23
-16 33 -28 13 -12 -19 -35 -11 -32 12 1 17 -4 24 -20 26 -46 7 -21 17 32 14
57 -4 112 4 101 15 -3 3 -39 5 -81 4 -41 -1 -75 2 -75 8 0 11 25 21 56 21 17
0 24 6 24 20 0 16 -7 20 -30 20 -20 0 -30 5 -30 15 0 8 -6 16 -12 17 -7 1 14
5 47 8 78 10 136 5 146 -12z m3187 13 c11 -7 10 -10 -3 -15 -26 -9 -133 -7
-140 3 -9 16 120 27 143 12z m88 -1 c19 0 34 -5 34 -11 0 -16 -93 -7 -98 10
-3 10 0 12 12 8 10 -4 33 -7 52 -7z m373 1 c22 -14 -2 -21 -78 -20 -65 1 -89
10 -58 22 21 9 121 7 136 -2z m-5397 -73 c-16 -16 -26 14 -17 50 l8 27 10 -33
c7 -23 7 -36 -1 -44z m1418 62 c0 -5 -7 -10 -15 -10 -19 0 -22 -80 -2 -80 6
-1 25 -6 40 -13 26 -11 24 -12 -29 -10 l-58 1 1 59 c1 32 2 58 2 58 10 7 61 2
61 -5z m47 4 c-3 -3 -12 -4 -19 -1 -8 3 -5 6 6 6 11 1 17 -2 13 -5z m3303 -4
c0 -5 -22 -9 -50 -9 -27 1 -50 6 -50 10 0 5 23 9 50 9 28 0 50 -4 50 -10z
m-6702 -51 c-3 -26 -18 -29 -32 -6 -7 10 -5 21 4 32 17 20 33 6 28 -26z m2567
-1 c25 -4 32 -43 9 -52 -29 -11 -74 16 -74 45 0 34 10 42 29 25 9 -8 25 -16
36 -18z m-3104 -38 c1 -22 1 -60 1 -85 0 -68 0 -69 -17 -55 -8 7 -13 16 -10
20 3 5 6 42 7 84 1 78 17 108 19 36z m1026 8 c-3 -7 -5 -2 -5 12 0 14 2 19 5
13 2 -7 2 -19 0 -25z m3041 25 c-10 -2 -26 -2 -35 0 -10 3 -2 5 17 5 19 0 27
-2 18 -5z m3332 -3 c13 -8 12 -10 -2 -10 -10 0 -18 -5 -18 -11 0 -6 -8 -8 -17
-5 -10 3 -63 6 -118 7 -104 2 -119 4 -110 19 8 12 246 12 265 0z m140 -11 c0
-5 -27 -9 -60 -8 -56 2 -81 14 -43 21 29 6 103 -4 103 -13z m1118 15 c57 -7
71 -24 20 -24 -52 0 -23 -13 32 -14 65 -1 65 -19 1 -26 -65 -7 -77 -20 -18
-20 25 0 53 -3 63 -7 14 -5 11 -9 -16 -18 -43 -15 -50 -33 -10 -27 18 3 30 0
30 -7 0 -6 -15 -12 -32 -12 -18 -1 -37 -2 -43 -4 -5 -1 -14 -3 -20 -4 -5 -2
10 -8 35 -14 37 -10 45 -16 47 -37 1 -14 -1 -18 -3 -9 -3 10 -14 19 -25 22
-23 6 -25 -8 -3 -21 13 -7 14 -13 6 -29 -8 -15 -18 -18 -46 -15 -22 3 -36 0
-36 -7 0 -6 6 -11 14 -11 7 0 19 -7 26 -15 11 -13 15 -13 22 -3 6 10 15 6 33
-17 l25 -30 -50 -3 c-51 -3 -72 -22 -24 -22 42 0 64 -18 64 -50 0 -24 -5 -31
-26 -36 -19 -5 -22 -9 -12 -15 10 -6 10 -9 1 -9 -7 0 -13 -9 -13 -20 0 -12 -7
-21 -17 -21 -10 -1 0 -5 22 -9 36 -7 34 -7 -25 -9 -72 -1 -69 -12 10 -34 l45
-12 -90 -6 c-49 -3 -100 -2 -113 3 -13 4 -72 8 -132 8 -82 0 -118 4 -145 17
-41 19 -44 28 -12 37 22 6 21 7 -7 22 -25 14 -27 18 -13 26 10 5 22 6 27 3 6
-3 10 -2 10 3 0 5 -9 12 -20 15 -28 7 -25 27 5 27 14 0 25 4 25 8 0 5 -10 8
-22 8 -18 -1 -22 5 -24 37 -2 26 2 40 12 44 12 4 12 8 -3 19 -17 13 -17 15 0
28 18 14 18 14 0 19 -14 3 -10 7 17 18 l35 13 -29 6 c-36 6 -47 30 -14 31 20
0 20 1 5 8 -28 10 -20 25 21 37 l37 12 -42 1 c-31 1 -43 5 -43 16 0 8 9 15 20
15 11 0 20 5 20 10 0 6 -9 10 -20 10 -26 0 -26 17 1 25 30 10 6 24 -41 26 -21
1 -27 3 -15 6 11 3 38 11 61 18 31 10 59 11 118 4 43 -6 83 -8 90 -5 6 2 2 5
-9 5 -17 1 -17 3 -5 11 17 11 139 13 218 4z m-7601 -26 c-3 -8 -6 -5 -6 6 -1
11 2 17 5 13 3 -3 4 -12 1 -19z m7723 11 c0 -5 -9 -9 -20 -9 -11 0 -20 4 -20
8 0 4 9 8 20 9 11 1 20 -2 20 -8z m-910 -24 c52 -11 64 -24 44 -47 -16 -17
-16 -19 2 -32 19 -14 18 -15 -4 -34 -35 -31 -191 -42 -192 -14 -1 4 -2 30 -4
59 -2 28 0 56 3 61 3 6 24 12 46 14 41 5 47 4 105 -7z m-1940 -5 c0 -5 -4 -10
-10 -10 -5 0 -10 5 -10 10 0 6 5 10 10 10 6 0 10 -4 10 -10z m1511 -17 c14
-12 17 -12 22 2 7 15 33 20 61 9 12 -5 16 -21 16 -65 0 -52 -2 -59 -20 -59
-12 0 -20 7 -20 17 0 15 -1 15 -18 0 -16 -14 -40 -16 -176 -13 -172 4 -200 12
-156 47 l25 19 -23 20 c-42 35 -19 42 132 39 103 -1 145 -6 157 -16z m-4966
-61 c-6 -16 -7 -16 -17 1 -5 10 -7 30 -3 45 l7 27 10 -28 c6 -15 7 -35 3 -45z
m-2187 -13 c-1 -20 2 -41 5 -46 4 -6 0 -13 -8 -17 -8 -3 -15 -2 -16 2 0 4 -2
27 -5 51 -3 24 -2 51 1 59 10 26 25 -6 23 -49z m3623 47 c-13 -16 -61 -27 -61
-15 0 5 -7 9 -16 9 -8 0 -12 5 -9 10 3 6 27 10 52 10 38 0 43 -2 34 -14z
m-2881 -23 c-1 -24 -2 -26 -11 -10 -5 9 -7 22 -4 27 10 17 15 11 15 -17z m27
-10 c-3 -10 -5 -4 -5 12 0 17 2 24 5 18 2 -7 2 -21 0 -30z m2008 4 c0 -7 12
-12 27 -12 35 -1 42 -9 29 -32 -7 -15 -18 -19 -41 -15 -36 5 -45 20 -36 58 7
25 21 25 21 1z m792 -40 c14 5 32 -11 33 -29 0 -5 -16 -8 -36 -8 -33 0 -36 2
-30 23 3 12 7 33 7 47 2 20 3 18 6 -7 3 -24 8 -30 20 -26z m2100 37 c-3 -3
-12 -4 -19 -1 -8 3 -5 6 6 6 11 1 17 -2 13 -5z m-5187 -44 c0 -5 -4 -10 -10
-10 -5 0 -10 5 -10 10 0 6 5 10 10 10 6 0 10 -4 10 -10z m271 -20 c5 0 9 8 10
18 0 9 4 4 9 -11 5 -16 6 -35 3 -43 -4 -12 -8 -11 -19 3 -12 16 -13 11 -14
-40 0 -32 -3 -56 -8 -54 -6 4 -7 73 -1 142 1 17 2 17 6 3 2 -10 9 -18 14 -18z
m5106 -6 c-3 -3 -12 -4 -19 -1 -8 3 -5 6 6 6 11 1 17 -2 13 -5z m2690 0 c-3
-3 -12 -4 -19 -1 -8 3 -5 6 6 6 11 1 17 -2 13 -5z m-1673 -35 c-8 -13 -24 -1
-24 18 0 13 3 13 15 3 8 -7 12 -16 9 -21z m246 10 c0 -5 -16 -9 -35 -9 -39 0
-48 17 -12 22 27 5 47 -1 47 -13z m-7410 -9 c0 -11 -4 -20 -10 -20 -5 0 -10 9
-10 20 0 11 5 20 10 20 6 0 10 -9 10 -20z m7330 10 c0 -5 -22 -10 -49 -10 -27
0 -58 -3 -68 -7 -16 -6 -16 -5 -4 10 15 19 121 25 121 7z m190 -6 c0 -8 -5
-12 -10 -9 -6 4 -8 11 -5 16 9 14 15 11 15 -7z m315 -5 c5 -6 1 -9 -10 -10
-11 -1 -33 -3 -50 -5 -16 -2 -37 -1 -45 2 -13 5 -12 8 3 19 19 14 84 10 102
-6z m-395 7 c0 -3 -4 -8 -10 -11 -5 -3 -10 -1 -10 4 0 6 5 11 10 11 6 0 10 -2
10 -4z m-3600 -46 c0 -16 -4 -30 -8 -30 -5 0 -7 14 -4 30 2 17 6 30 8 30 2 0
4 -13 4 -30z m-2779 -43 c-13 -13 -20 5 -13 38 l5 30 8 -30 c5 -16 5 -33 0
-38z m-291 43 c0 -5 -5 -10 -11 -10 -5 0 -7 5 -4 10 3 6 8 10 11 10 2 0 4 -4
4 -10z m3505 -10 c3 -5 1 -10 -4 -10 -6 0 -11 5 -11 10 0 6 2 10 4 10 3 0 8
-4 11 -10z m3075 1 c0 -5 10 -12 23 -14 12 -2 -7 -4 -43 -4 -36 0 -48 2 -27 4
20 2 35 8 32 14 -4 5 -1 9 4 9 6 0 11 -4 11 -9z m-7350 -28 c0 -20 -3 -24 -11
-16 -7 7 -9 19 -6 27 10 24 17 19 17 -11z m550 -12 c-1 -17 -19 -31 -33 -25
-20 7 -22 35 -5 52 10 10 15 9 25 -5 7 -9 13 -19 13 -22z m3634 -1 c-5 -5 -10
3 -11 18 -1 22 0 24 9 8 6 -10 6 -22 2 -26z m3071 30 c3 -5 -3 -10 -15 -10
-12 0 -18 5 -15 10 3 6 10 10 15 10 5 0 12 -4 15 -10z m229 1 c7 -11 -22 -23
-36 -15 -6 4 -5 10 3 15 18 11 26 11 33 0z m40 -12 c-3 -5 -10 -7 -15 -3 -5 3
-7 10 -3 15 3 5 10 7 15 3 5 -3 7 -10 3 -15z m-3364 1 c0 -5 -6 -10 -12 -10
-7 -1 -30 -3 -51 -6 -21 -3 -46 -3 -55 1 -15 6 -15 8 3 15 29 12 115 12 115 0z
m-282 -19 c7 -1 10 -5 7 -11 -7 -12 -65 -14 -65 -2 0 14 10 20 28 17 9 -2 23
-4 30 -4z m402 -1 c0 -5 -2 -10 -4 -10 -3 0 -8 5 -11 10 -3 6 -1 10 4 10 6 0
11 -4 11 -10z m3020 -30 c0 -5 23 -10 51 -10 27 0 48 -3 46 -7 -3 -5 -62 -7
-132 -5 -70 2 -125 6 -121 9 3 3 35 5 71 5 36 -1 65 3 65 8 0 6 5 10 10 10 6
0 10 -4 10 -10z m-7300 -20 c0 -11 -4 -20 -10 -20 -5 0 -10 9 -10 20 0 11 5
20 10 20 6 0 10 -9 10 -20z m3927 14 c-3 -3 -12 -4 -19 -1 -8 3 -5 6 6 6 11 1
17 -2 13 -5z m-2900 -36 c-3 -7 -5 -2 -5 12 0 14 2 19 5 13 2 -7 2 -19 0 -25z
m2810 -30 c-2 -13 -4 -3 -4 22 0 25 2 35 4 23 2 -13 2 -33 0 -45z m337 51 c-6
-10 41 -20 63 -13 15 5 15 4 3 -5 -13 -9 -11 -11 6 -11 21 0 22 -3 19 -114 -1
-62 -5 -118 -9 -124 -3 -6 -2 -14 4 -17 6 -4 8 -22 5 -43 -4 -30 -3 -33 5 -17
9 18 10 17 5 -5 -28 -122 -27 -214 1 -203 10 4 12 0 8 -11 -3 -9 -10 -16 -14
-16 -4 0 -7 -18 -7 -41 0 -32 4 -42 20 -48 14 -5 17 -10 9 -15 -7 -4 -12 -31
-12 -62 0 -41 -4 -54 -15 -54 -8 0 -15 -4 -15 -10 0 -5 7 -10 15 -10 8 0 15
-5 15 -10 0 -6 -7 -13 -15 -16 -8 -4 -15 -12 -15 -19 0 -22 -24 -23 -43 -1
-13 14 -20 17 -25 9 -6 -9 -11 -7 -19 7 -10 14 -9 19 2 24 8 3 15 15 15 26 0
11 5 20 10 20 6 0 10 16 10 36 0 30 -2 34 -14 25 -10 -8 -16 -9 -21 -1 -3 5
-1 10 4 10 16 0 14 80 -1 81 -10 0 -10 2 0 6 18 7 15 17 -14 47 -21 20 -23 26
-10 26 9 0 16 -4 16 -10 0 -5 7 -10 15 -10 10 0 15 10 15 30 0 22 -5 30 -17
30 -12 0 -14 3 -6 8 17 11 10 39 -13 57 -10 8 -37 15 -59 15 -35 1 -38 2 -20
12 11 6 28 20 37 30 9 11 32 20 52 21 41 2 44 7 16 32 -12 11 -20 31 -20 52 0
18 -4 33 -10 33 -20 0 -9 18 15 24 27 7 35 26 11 26 -8 0 -37 -5 -65 -12 -38
-8 -54 -9 -63 0 -8 8 -3 13 18 17 50 11 56 15 50 30 -3 8 -1 17 4 20 6 4 10
16 10 27 0 12 3 18 6 15 8 -8 44 11 44 23 0 6 -31 7 -77 4 -74 -5 -76 -5 -51
9 15 9 38 17 50 19 19 2 22 8 20 31 -3 25 -1 27 27 25 16 -1 28 -5 25 -9z
m3296 1 c0 -5 -7 -10 -15 -10 -8 0 -15 5 -15 10 0 6 7 10 15 10 8 0 15 -4 15
-10z m-6927 -19 c2 -10 0 -26 -5 -35 -8 -14 -13 -15 -24 -5 -15 12 -19 41 -7
52 12 13 31 7 36 -12z m7217 9 c0 -5 -7 -10 -15 -10 -8 0 -15 5 -15 10 0 6 7
10 15 10 8 0 15 -4 15 -10z m-7760 -67 c0 -20 -3 -24 -11 -16 -7 7 -9 19 -6
27 10 24 17 19 17 -11z m7185 17 c4 -6 -5 -10 -20 -10 -15 0 -24 4 -20 10 3 6
12 10 20 10 8 0 17 -4 20 -10z m-3296 -34 c-3 -3 -19 -7 -37 -11 -24 -4 -32
-2 -32 9 0 8 12 16 28 18 26 4 51 -6 41 -16z m-3344 -16 c0 -29 -32 -41 -41
-16 -9 24 4 48 23 44 12 -2 18 -12 18 -28z m482 -2 c-3 -8 -6 -5 -6 6 -1 11 2
17 5 13 3 -3 4 -12 1 -19z m30 -10 c-3 -7 -5 -2 -5 12 0 14 2 19 5 13 2 -7 2
-19 0 -25z m6420 16 c-3 -3 -12 -4 -19 -1 -8 3 -5 6 6 6 11 1 17 -2 13 -5z
m-3556 -27 c-10 -9 -11 -8 -5 6 3 10 9 15 12 12 3 -3 0 -11 -7 -18z m-3921
-14 c0 -20 -3 -24 -11 -16 -7 7 -9 19 -6 27 10 24 17 19 17 -11z m7385 7 c-3
-5 -12 -10 -20 -10 -8 0 -17 5 -20 10 -4 6 5 10 20 10 15 0 24 -4 20 -10z m88
-7 c-7 -2 -19 -2 -25 0 -7 3 -2 5 12 5 14 0 19 -2 13 -5z m-4999 -83 c-10 -41
-26 3 -18 47 l7 38 9 -30 c4 -16 6 -41 2 -55z m-1929 50 c9 -28 -13 -54 -31
-39 -17 14 -18 31 -2 47 17 17 26 15 33 -8z m482 -27 c-3 -10 -5 -4 -5 12 0
17 2 24 5 18 2 -7 2 -21 0 -30z m2810 15 c-3 -8 -6 -5 -6 6 -1 11 2 17 5 13 3
-3 4 -12 1 -19z m-2780 -20 c-3 -7 -5 -2 -5 12 0 14 2 19 5 13 2 -7 2 -19 0
-25z m-1057 -5 c0 -20 -3 -24 -11 -16 -7 7 -9 19 -6 27 10 24 17 19 17 -11z
m7170 17 c-19 -13 -30 -13 -30 0 0 6 10 10 23 10 18 0 19 -2 7 -10z m235 -10
c-3 -5 -17 -10 -31 -10 -13 0 -24 5 -24 10 0 6 14 10 31 10 17 0 28 -4 24 -10z
m124 -6 c2 -2 -17 -4 -42 -4 -26 0 -47 5 -47 10 0 9 78 4 89 -6z m-3647 -9
c-3 -14 -51 -25 -58 -14 -3 5 -3 13 0 17 7 12 61 9 58 -3z m2541 -12 c-7 -2
-19 -2 -25 0 -7 3 -2 5 12 5 14 0 19 -2 13 -5z m62 -3 c3 -5 -3 -10 -14 -10
-12 0 -21 5 -21 10 0 6 6 10 14 10 8 0 18 -4 21 -10z m-5940 -20 c9 -28 -13
-54 -31 -39 -17 14 -18 31 -2 47 17 17 26 15 33 -8z m6835 5 c0 -11 11 -15 38
-16 75 -1 80 -18 5 -18 -39 -1 -75 4 -78 9 -3 6 1 10 10 10 11 0 15 5 11 15
-3 8 -1 15 4 15 6 0 10 -7 10 -15z m-7380 -27 c0 -23 -3 -29 -11 -21 -6 6 -8
20 -4 32 9 30 15 26 15 -11z m1027 -20 c-3 -7 -5 -2 -5 12 0 14 2 19 5 13 2
-7 2 -19 0 -25z m30 0 c-3 -7 -5 -2 -5 12 0 14 2 19 5 13 2 -7 2 -19 0 -25z
m6723 12 c0 -5 -9 -10 -20 -10 -11 0 -20 5 -20 10 0 6 9 10 20 10 11 0 20 -4
20 -10z m95 0 c4 -6 -8 -10 -29 -10 -20 0 -39 0 -43 -1 -4 0 -9 4 -11 10 -5
14 75 15 83 1z m-5395 -35 c0 -27 -15 -41 -25 -25 -10 16 4 62 15 55 6 -3 10
-17 10 -30z m1357 -17 c-2 -13 -4 -5 -4 17 -1 22 1 32 4 23 2 -10 2 -28 0 -40z
m2586 35 c-13 -2 -33 -2 -45 0 -13 2 -3 4 22 4 25 0 35 -2 23 -4z m60 0 c-7
-2 -19 -2 -25 0 -7 3 -2 5 12 5 14 0 19 -2 13 -5z m-2576 -35 c-3 -7 -5 -2 -5
12 0 14 2 19 5 13 2 -7 2 -19 0 -25z m3489 12 c0 -17 -6 -20 -41 -19 -30 2
-33 3 -12 6 15 2 27 11 27 19 0 8 6 14 13 14 7 0 13 -9 13 -20z m-6851 -10 c9
-28 -13 -54 -31 -39 -17 14 -18 31 -2 47 17 17 26 15 33 -8z m-542 -27 c-4
-10 -9 -11 -16 -4 -5 5 -7 18 -3 28 6 14 9 15 16 4 4 -8 6 -21 3 -28z m1054
-20 c-3 -10 -5 -4 -5 12 0 17 2 24 5 18 2 -7 2 -21 0 -30z m6773 27 c0 -5 -11
-10 -25 -10 -14 0 -25 5 -25 10 0 6 11 10 25 10 14 0 25 -4 25 -10z m-6803
-32 c-3 -8 -6 -5 -6 6 -1 11 2 17 5 13 3 -3 4 -12 1 -19z m5407 -7 c24 -1 27
-3 16 -16 -11 -13 -4 -15 56 -15 53 0 65 -3 56 -12 -12 -12 -97 -2 -147 16
-14 6 -16 5 -7 -2 11 -7 11 -10 -2 -15 -10 -4 -16 -1 -16 8 0 8 -9 15 -19 15
-11 0 -22 4 -26 9 -6 10 21 19 45 15 8 -1 28 -3 44 -3z m-6431 -38 c-4 -10 -9
-11 -16 -4 -5 5 -7 18 -3 28 6 14 9 15 16 4 4 -8 6 -21 3 -28z m543 23 c3 -8
0 -24 -6 -36 -9 -17 -14 -19 -26 -9 -17 14 -18 31 -2 47 16 16 27 15 34 -2z
m5969 4 c19 -8 19 -9 -2 -9 -12 -1 -25 4 -28 9 -7 12 2 12 30 0z m-4035 -36
c0 -15 -6 -24 -15 -24 -16 0 -19 17 -9 44 9 22 24 10 24 -20z m1357 -26 c-2
-13 -4 -3 -4 22 0 25 2 35 4 23 2 -13 2 -33 0 -45z m-2810 -15 c-3 -10 -5 -4
-5 12 0 17 2 24 5 18 2 -7 2 -21 0 -30z m30 -5 c-3 -7 -5 -2 -5 12 0 14 2 19
5 13 2 -7 2 -19 0 -25z m-1057 -5 c0 -20 -3 -24 -11 -16 -7 7 -9 19 -6 27 10
24 17 19 17 -11z m544 1 c5 -14 -9 -54 -19 -54 -2 0 -9 9 -15 21 -9 15 -8 24
1 35 15 18 25 18 33 -2z m5941 -14 c13 -6 -2 -7 -40 -3 -33 3 -62 7 -64 9 -9
8 85 2 104 -6z m-3415 -10 c0 -5 13 -16 29 -25 32 -16 35 -42 8 -59 -33 -21
-74 24 -63 67 6 26 26 38 26 17z m-590 -41 c0 -19 -5 -29 -15 -29 -16 0 -18
12 -9 47 8 31 24 19 24 -18z m-2480 -11 c0 -16 -3 -19 -11 -11 -6 6 -8 16 -5
22 11 17 16 13 16 -11z m1027 -10 c-3 -7 -5 -2 -5 12 0 14 2 19 5 13 2 -7 2
-19 0 -25z m35 0 c-9 -9 -12 -7 -12 12 0 19 3 21 12 12 9 -9 9 -15 0 -24z
m2775 -30 c-2 -13 -4 -3 -4 22 0 25 2 35 4 23 2 -13 2 -33 0 -45z m20 0 c-2
-13 -4 -3 -4 22 0 25 2 35 4 23 2 -13 2 -33 0 -45z m3668 42 c3 -5 -1 -10 -10
-10 -9 0 -13 5 -10 10 3 6 8 10 10 10 2 0 7 -4 10 -10z m245 -10 c0 -5 -4 -10
-9 -10 -6 0 -13 5 -16 10 -3 6 1 10 9 10 9 0 16 -4 16 -10z m-1590 -10 c0 -5
-19 -10 -42 -10 -32 0 -39 3 -28 10 20 13 70 13 70 0z m1269 -30 c12 0 24 7
27 15 4 8 16 15 29 15 25 0 35 -29 35 -105 0 -35 -4 -44 -22 -50 l-23 -8 23
-4 c12 -2 22 -11 22 -20 0 -11 -8 -14 -37 -9 -21 3 -87 8 -148 11 -151 8 -215
16 -215 26 0 5 14 9 30 9 17 0 30 5 30 10 0 6 -9 10 -19 10 -33 0 -51 11 -51
31 0 10 5 19 11 19 6 0 8 9 4 20 -4 13 -2 20 7 21 140 6 232 17 236 28 3 9 9
8 21 -3 10 -9 27 -16 40 -16z m346 10 c-3 -5 -17 -10 -31 -10 -13 0 -24 5 -24
10 0 6 14 10 31 10 17 0 28 -4 24 -10z m-7793 -143 c-3 -26 -7 -45 -11 -42 -8
8 -11 145 -3 170 9 29 20 -69 14 -128z m3065 127 c-10 -10 12 -44 28 -44 22 0
39 -38 24 -56 -27 -33 -78 -5 -79 44 0 24 16 62 27 62 3 0 3 -3 0 -6z m853 -4
c0 -5 -5 -10 -11 -10 -5 0 -7 5 -4 10 3 6 8 10 11 10 2 0 4 -4 4 -10z m-2893
-37 c-3 -10 -5 -4 -5 12 0 17 2 24 5 18 2 -7 2 -21 0 -30z m34 -6 c-8 -8 -11
-3 -11 19 1 25 2 27 11 11 8 -14 8 -22 0 -30z m1422 11 c2 -18 0 -39 -5 -45
-7 -9 -7 -27 1 -57 11 -43 7 -76 -9 -76 -4 0 -10 6 -12 13 -3 10 -3 107 1 180
2 29 18 19 24 -15z m5276 21 c17 -6 31 -16 31 -22 0 -7 6 -3 12 7 10 19 11 19
24 1 11 -15 16 -16 29 -5 12 10 19 10 27 2 7 -7 23 -12 38 -12 22 -1 23 -2 7
-11 -10 -6 -44 -8 -76 -6 -32 3 -64 1 -72 -4 -14 -9 -7 -10 56 -13 13 -1 21
-9 23 -24 3 -22 2 -23 -70 -20 l-73 3 -1 40 c0 37 5 75 11 75 1 0 16 -5 34
-11z m-7209 -36 c0 -18 -28 -29 -42 -15 -7 7 -6 17 2 32 9 17 14 19 26 9 8 -6
14 -18 14 -26z m5618 20 c-10 -2 -26 -2 -35 0 -10 3 -2 5 17 5 19 0 27 -2 18
-5z m-2332 -111 c-11 -10 -14 3 -7 38 l6 35 3 -33 c2 -19 1 -36 -2 -40z m205
35 c-8 -8 -11 -7 -11 4 0 20 13 34 18 19 3 -7 -1 -17 -7 -23z m49 19 c0 -2 -7
-6 -15 -10 -8 -3 -15 -1 -15 4 0 6 7 10 15 10 8 0 15 -2 15 -4z m3825 -16 c18
-19 17 -20 -7 -20 -30 0 -38 7 -31 26 7 19 17 18 38 -6z m-6888 -27 c-3 -10
-5 -4 -5 12 0 17 2 24 5 18 2 -7 2 -21 0 -30z m-738 -105 c1 -33 -3 -58 -9
-58 -6 0 -10 38 -9 98 1 78 3 89 10 57 4 -22 8 -66 8 -97z m773 100 c-9 -9
-12 -7 -12 12 0 19 3 21 12 12 9 -9 9 -15 0 -24z m-522 1 c0 -5 -4 -9 -10 -9
-5 0 -10 7 -10 16 0 8 5 12 10 9 6 -3 10 -10 10 -16z m3388 -25 c-4 -3 -12 5
-18 18 -12 22 -12 22 6 6 10 -10 15 -20 12 -24z m-3021 -10 c-2 -2 -12 -1 -22
2 -17 7 -17 8 1 21 17 12 19 12 22 -2 2 -9 2 -19 -1 -21z m3242 15 c-16 -10
-23 -4 -14 10 3 6 11 8 17 5 6 -4 5 -9 -3 -15z m-1079 -9 c0 -11 7 -23 15 -27
13 -5 13 -8 -5 -20 -33 -23 -52 5 -34 51 9 23 24 20 24 -4z m4710 7 c8 -3 29
-8 45 -10 17 -2 0 -5 -37 -6 -53 -1 -68 2 -68 13 0 15 29 16 60 3z m120 -17
c0 -5 -9 -10 -20 -10 -11 0 -20 5 -20 10 0 6 9 10 20 10 11 0 20 -4 20 -10z
m-7356 -28 c-1 -7 -2 -39 -2 -72 -2 -71 -22 -82 -22 -12 0 26 -5 53 -12 60 -8
8 -8 15 2 27 14 17 36 15 34 -3z m483 -29 c-3 -10 -5 -2 -5 17 0 19 2 27 5 18
2 -10 2 -26 0 -35z m-118 -190 c0 -126 -3 -222 -6 -214 -3 7 -14 22 -25 33
-17 17 -19 32 -17 136 1 64 7 123 12 130 6 8 6 17 -1 25 -11 13 -10 20 14 105
2 6 8 12 14 12 6 0 10 -77 9 -227z m2975 152 c5 -13 2 -12 -8 5 -8 14 -15 36
-15 50 1 23 2 22 9 -5 4 -16 11 -39 14 -50z m-2827 43 c-3 -8 -6 -5 -6 6 -1
11 2 17 5 13 3 -3 4 -12 1 -19z m2780 -40 c-2 -13 -4 -3 -4 22 0 25 2 35 4 23
2 -13 2 -33 0 -45z m243 52 c0 -5 -4 -10 -10 -10 -5 0 -10 5 -10 10 0 6 5 10
10 10 6 0 10 -4 10 -10z m-1597 -67 c6 -32 -7 -53 -24 -36 -11 11 -2 63 11 63
4 0 10 -12 13 -27z m1044 5 c-3 -8 -6 -5 -6 6 -1 11 2 17 5 13 3 -3 4 -12 1
-19z m658 -8 c-3 -5 -12 -7 -20 -3 -21 7 -19 13 6 13 11 0 18 -4 14 -10z
m-3158 -32 c-3 -7 -5 -2 -5 12 0 14 2 19 5 13 2 -7 2 -19 0 -25z m2046 12 c3
-10 -1 -27 -7 -36 -12 -16 -13 -16 -20 1 -7 20 1 55 14 55 4 0 10 -9 13 -20z
m1184 -32 c11 -63 9 -68 -23 -68 -38 0 -55 22 -44 58 21 75 55 80 67 10z
m-3200 20 c-3 -8 -6 -5 -6 6 -1 11 2 17 5 13 3 -3 4 -12 1 -19z m5758 7 c0 -5
-21 -11 -47 -13 -39 -3 -48 0 -48 13 0 13 9 16 48 13 26 -2 47 -7 47 -13z
m-2978 -97 c-2 -13 -4 -5 -4 17 -1 22 1 32 4 23 2 -10 2 -28 0 -40z m-2804
-77 c2 -62 0 -114 -5 -117 -4 -3 -8 50 -8 117 0 67 2 120 5 117 2 -2 6 -55 8
-117z m1447 73 c0 -32 -12 -45 -24 -25 -9 13 5 71 15 65 5 -3 9 -21 9 -40z
m1404 4 c6 -4 7 -8 1 -8 -23 0 -38 18 -30 36 8 18 8 18 13 -1 2 -11 9 -23 16
-27z m143 -10 c-3 -7 -5 -2 -5 12 0 14 2 19 5 13 2 -7 2 -19 0 -25z m2793 17
c0 -16 -34 -20 -89 -9 -47 10 -27 24 35 24 41 0 54 -4 54 -15z m-3750 -23 c0
-10 6 -24 12 -30 10 -10 10 -15 -2 -22 -8 -5 -18 -10 -22 -10 -11 0 -20 39
-13 60 8 25 25 26 25 2z m870 -2 c0 -5 -6 -10 -14 -10 -8 0 -18 5 -21 10 -3 6
3 10 14 10 12 0 21 -4 21 -10z m324 -76 c3 -9 6 -28 6 -43 0 -25 -3 -28 -25
-23 -22 4 -25 10 -25 43 0 32 4 39 19 39 10 0 22 -7 25 -16z m-1784 -29 c0
-33 -12 -46 -25 -25 -8 12 5 60 16 60 5 0 9 -16 9 -35z m-1980 -5 c0 -5 -4
-10 -10 -10 -5 0 -10 5 -10 10 0 6 5 10 10 10 6 0 10 -4 10 -10z m2571 -12 c1
-7 1 -16 1 -19 -1 -4 12 -9 28 -13 31 -6 38 -24 18 -44 -35 -35 -85 10 -72 64
6 25 23 33 25 12z m-2014 -45 c-3 -10 -5 -4 -5 12 0 17 2 24 5 18 2 -7 2 -21
0 -30z m1423 -58 c0 -34 -12 -46 -25 -24 -9 14 3 59 15 59 6 0 10 -16 10 -35z
m-1750 5 c0 -6 9 -6 25 0 14 5 25 8 25 6 0 -3 3 -11 6 -20 5 -13 -2 -16 -40
-16 -43 0 -59 13 -39 33 10 10 23 8 23 -3z m3107 -37 c-3 -10 -5 -4 -5 12 0
17 2 24 5 18 2 -7 2 -21 0 -30z m-760 -2 c3 -11 17 -21 34 -25 27 -5 28 -7 17
-31 -6 -13 -19 -27 -30 -30 -27 -9 -23 -49 7 -63 27 -13 30 -23 15 -53 -13
-23 -37 -24 -62 -2 -20 18 -23 49 -8 89 8 20 8 36 -1 56 -12 30 -5 78 12 78 6
0 13 -9 16 -19z m1200 -58 c-3 -10 -5 -2 -5 17 0 19 2 27 5 18 2 -10 2 -26 0
-35z m-87 -3 c0 -5 -6 -10 -14 -10 -8 0 -18 5 -21 10 -3 6 3 10 14 10 12 0 21
-4 21 -10z m-353 -87 c-3 -10 -5 -2 -5 17 0 19 2 27 5 18 2 -10 2 -26 0 -35z
m0 -125 c-3 -7 -5 -2 -5 12 0 14 2 19 5 13 2 -7 2 -19 0 -25z m-2082 -8 c-3
-5 -17 -10 -31 -10 -14 0 -22 4 -19 10 3 6 17 10 31 10 14 0 22 -4 19 -10z
m2082 -142 c-2 -13 -4 -3 -4 22 0 25 2 35 4 23 2 -13 2 -33 0 -45z m0 -100
c-3 -8 -6 -5 -6 6 -1 11 2 17 5 13 3 -3 4 -12 1 -19z m0 -170 c-2 -13 -4 -5
-4 17 -1 22 1 32 4 23 2 -10 2 -28 0 -40z m-1411 -13 c-2 -7 1 -18 7 -24 8 -8
7 -11 -3 -11 -13 0 -13 -2 0 -10 13 -9 13 -11 0 -20 -8 -5 -22 -10 -30 -10
-22 0 -22 71 -1 87 18 13 34 7 27 -12z m469 -65 c-3 -5 -16 -10 -28 -10 -18 0
-19 2 -7 10 20 13 43 13 35 0z m942 -67 c-3 -10 -5 -4 -5 12 0 17 2 24 5 18 2
-7 2 -21 0 -30z"/>
<path d="M3930 4948 l1 -43 14 40 c18 49 18 45 0 45 -11 0 -15 -11 -15 -42z"/>
<path d="M5102 3345 c0 -16 2 -22 5 -12 2 9 2 23 0 30 -3 6 -5 -1 -5 -18z"/>
<path d="M4040 4960 c0 -11 2 -20 4 -20 2 0 6 9 9 20 3 11 1 20 -4 20 -5 0 -9
-9 -9 -20z"/>
<path d="M3275 4600 c-3 -5 -1 -10 4 -10 6 0 11 5 11 10 0 6 -2 10 -4 10 -3 0
-8 -4 -11 -10z"/>
<path d="M3328 4233 c6 -2 18 -2 25 0 6 3 1 5 -13 5 -14 0 -19 -2 -12 -5z"/>
<path d="M3286 3601 c-8 -13 -3 -101 6 -101 4 0 8 25 8 55 0 54 -3 64 -14 46z"/>
<path d="M3228 2893 c6 -2 18 -2 25 0 6 3 1 5 -13 5 -14 0 -19 -2 -12 -5z"/>
<path d="M3400 2798 c0 -31 3 -39 10 -28 13 20 13 57 0 65 -6 4 -10 -11 -10
-37z"/>
<path d="M3293 2525 c0 -27 2 -38 4 -22 2 15 2 37 0 50 -2 12 -4 0 -4 -28z"/>
<path d="M3288 2259 c-2 -22 0 -43 4 -45 4 -3 8 15 8 40 0 57 -7 60 -12 5z"/>
<path d="M3293 2135 c0 -27 2 -38 4 -22 2 15 2 37 0 50 -2 12 -4 0 -4 -28z"/>
<path d="M3290 1353 c0 -68 5 -67 13 5 4 30 2 52 -3 52 -6 0 -10 -25 -10 -57z"/>
<path d="M3400 981 c0 -11 5 -23 10 -26 6 -3 10 3 10 14 0 11 -4 23 -10 26 -5
3 -10 -3 -10 -14z"/>
<path d="M2700 3080 c0 -5 5 -10 11 -10 5 0 7 5 4 10 -3 6 -8 10 -11 10 -2 0
-4 -4 -4 -10z"/>
<path d="M2807 2893 c-2 -5 -2 -25 0 -45 5 -40 22 -52 24 -18 4 54 1 70 -10
70 -6 0 -12 -3 -14 -7z"/>
<path d="M2700 2560 c0 -5 5 -10 10 -10 6 0 10 5 10 10 0 6 -4 10 -10 10 -5 0
-10 -4 -10 -10z"/>
<path d="M2710 1120 c0 -5 5 -10 11 -10 5 0 7 5 4 10 -3 6 -8 10 -11 10 -2 0
-4 -4 -4 -10z"/>
<path d="M2080 4360 c0 -5 5 -10 10 -10 6 0 10 5 10 10 0 6 -4 10 -10 10 -5 0
-10 -4 -10 -10z"/>
<path d="M10058 4273 c7 -3 16 -2 19 1 4 3 -2 6 -13 5 -11 0 -14 -3 -6 -6z"/>
<path d="M3953 2535 c0 -22 2 -30 4 -17 2 12 2 30 0 40 -3 9 -5 -1 -4 -23z"/>
<path d="M3922 2530 c0 -19 2 -27 5 -17 2 9 2 25 0 35 -3 9 -5 1 -5 -18z"/>
<path d="M6810 4008 c0 -4 7 -8 15 -8 8 0 15 4 15 8 0 5 -7 9 -15 9 -8 0 -15
-4 -15 -9z"/>
<path d="M6880 4012 c0 -4 16 -6 35 -4 19 2 35 6 35 8 0 2 -16 4 -35 4 -19 0
-35 -4 -35 -8z"/>
<path d="M7160 3950 c0 -5 5 -10 11 -10 5 0 7 5 4 10 -3 6 -8 10 -11 10 -2 0
-4 -4 -4 -10z"/>
<path d="M7073 3903 c9 -2 25 -2 35 0 9 3 1 5 -18 5 -19 0 -27 -2 -17 -5z"/>
<path d="M6828 3863 c12 -2 30 -2 40 0 9 3 -1 5 -23 4 -22 0 -30 -2 -17 -4z"/>
<path d="M8165 4040 c3 -5 25 -10 47 -10 51 0 47 5 -10 14 -29 4 -41 3 -37 -4z"/>
<path d="M7620 4100 c20 -13 33 -13 25 0 -3 6 -14 10 -23 10 -15 0 -15 -2 -2
-10z"/>
<path d="M7568 4093 c7 -3 16 -2 19 1 4 3 -2 6 -13 5 -11 0 -14 -3 -6 -6z"/>
<path d="M8735 3900 c7 -12 172 -12 200 0 13 6 -21 9 -93 9 -73 1 -111 -3
-107 -9z"/>
<path d="M8783 3843 c9 -2 25 -2 35 0 9 3 1 5 -18 5 -19 0 -27 -2 -17 -5z"/>
<path d="M8775 3710 c28 -12 93 -12 100 0 4 6 -17 10 -57 9 -44 0 -57 -3 -43
-9z"/>
<path d="M8798 3613 c7 -3 16 -2 19 1 4 3 -2 6 -13 5 -11 0 -14 -3 -6 -6z"/>
<path d="M8778 3559 c15 -5 36 -6 55 0 29 8 27 9 -23 9 -44 1 -50 -1 -32 -9z"/>
<path d="M8785 3469 c-15 -6 -11 -8 18 -8 20 -1 37 1 37 3 0 9 -37 12 -55 5z"/>
<path d="M8968 3463 c7 -3 16 -2 19 1 4 3 -2 6 -13 5 -11 0 -14 -3 -6 -6z"/>
<path d="M8758 3423 c6 -2 18 -2 25 0 6 3 1 5 -13 5 -14 0 -19 -2 -12 -5z"/>
<path d="M6790 3301 c0 -15 35 -19 185 -20 157 -2 196 12 63 22 -119 10 -248
8 -248 -2z"/>
<path d="M7148 3293 c7 -3 16 -2 19 1 4 3 -2 6 -13 5 -11 0 -14 -3 -6 -6z"/>
<path d="M6868 3233 c7 -3 16 -2 19 1 4 3 -2 6 -13 5 -11 0 -14 -3 -6 -6z"/>
<path d="M7010 2890 c0 -5 5 -10 10 -10 6 0 10 5 10 10 0 6 -4 10 -10 10 -5 0
-10 -4 -10 -10z"/>
<path d="M7105 2750 c-3 -5 -1 -10 4 -10 6 0 11 5 11 10 0 6 -2 10 -4 10 -3 0
-8 -4 -11 -10z"/>
<path d="M7060 2620 c0 -5 7 -10 16 -10 8 0 12 5 9 10 -3 6 -10 10 -16 10 -5
0 -9 -4 -9 -10z"/>
<path d="M7049 2499 c-1 -2 -3 -15 -4 -27 -2 -22 0 -23 29 -17 17 4 44 8 60 9
46 2 45 26 -1 26 -21 0 -48 3 -60 6 -13 4 -24 5 -24 3z"/>
<path d="M7045 2390 c-4 -6 10 -10 34 -10 23 0 41 5 41 10 0 6 -15 10 -34 10
-19 0 -38 -4 -41 -10z"/>
<path d="M7148 2133 c7 -3 16 -2 19 1 4 3 -2 6 -13 5 -11 0 -14 -3 -6 -6z"/>
<path d="M4515 3310 c-27 -4 -44 -8 -37 -8 6 -1 12 -15 12 -32 0 -41 20 -38
21 3 1 19 3 24 6 12 2 -11 6 -30 9 -42 8 -42 27 -26 20 17 -5 32 -3 40 9 40 8
0 15 5 15 10 0 6 -1 9 -2 8 -2 0 -25 -4 -53 -8z"/>
<path d="M4483 3173 c9 -2 25 -2 35 0 9 3 1 5 -18 5 -19 0 -27 -2 -17 -5z"/>
<path d="M4548 3093 c7 -3 16 -2 19 1 4 3 -2 6 -13 5 -11 0 -14 -3 -6 -6z"/>
<path d="M4223 3260 c0 -25 2 -35 4 -22 2 12 2 32 0 45 -2 12 -4 2 -4 -23z"/>
<path d="M8848 3133 c6 -2 18 -2 25 0 6 3 1 5 -13 5 -14 0 -19 -2 -12 -5z"/>
<path d="M9030 3130 c0 -5 7 -10 15 -10 8 0 15 5 15 10 0 6 -7 10 -15 10 -8 0
-15 -4 -15 -10z"/>
<path d="M8735 3100 c3 -5 34 -9 68 -9 59 1 60 2 22 10 -56 11 -97 11 -90 -1z"/>
<path d="M8752 3012 c-9 -6 2 -11 35 -15 47 -5 62 -3 51 8 -11 11 -73 16 -86
7z"/>
<path d="M8788 2903 c6 -2 18 -2 25 0 6 3 1 5 -13 5 -14 0 -19 -2 -12 -5z"/>
<path d="M7800 3139 c0 -5 5 -7 10 -4 6 3 10 8 10 11 0 2 -4 4 -10 4 -5 0 -10
-5 -10 -11z"/>
<path d="M4625 2831 c-3 -5 -1 -12 5 -16 5 -3 10 1 10 9 0 18 -6 21 -15 7z"/>
<path d="M7550 2230 c0 -5 9 -10 21 -10 11 0 17 5 14 10 -3 6 -13 10 -21 10
-8 0 -14 -4 -14 -10z"/>
<path d="M7620 2160 c0 -11 78 -17 93 -8 8 5 5 8 -8 9 -11 1 -35 2 -52 4 -18
1 -33 -1 -33 -5z"/>
<path d="M7793 2143 c9 -2 23 -2 30 0 6 3 -1 5 -18 5 -16 0 -22 -2 -12 -5z"/>
<path d="M8100 6810 c0 -5 5 -10 10 -10 6 0 10 5 10 10 0 6 -4 10 -10 10 -5 0
-10 -4 -10 -10z"/>
<path d="M10231 3984 c0 -11 3 -14 6 -6 3 7 2 16 -1 19 -3 4 -6 -2 -5 -13z"/>
<path d="M10098 3743 c7 -3 16 -2 19 1 4 3 -2 6 -13 5 -11 0 -14 -3 -6 -6z"/>
</g>
</svg>
